<?xml version="1.0" encoding="UTF-8"?> <!-- Generator: Adobe Illustrator 23.0.1, SVG Export Plug-In . SVG Version: 6.00 Build 0) --> <svg xmlns="http://www.w3.org/2000/svg" xmlns:xlink="http://www.w3.org/1999/xlink" x="0px" y="0px" viewBox="0 0 450.8 404.5" style="enable-background:new 0 0 450.8 404.5;" xml:space="preserve"> <style type="text/css"> .st0{fill:#48B3C1;} .st1{fill:#77E5A9;} .st2{opacity:0.5;fill:#B2E9EE;} .st3{opacity:0.21;fill:#D0D2D3;} .st4{opacity:0.29;fill:url(#SVGID_1_);} .st5{fill:#09B4C3;} .st6{fill:#B2E9EE;} .st7{opacity:0.13;fill:url(#SVGID_2_);} .st8{fill:#F0F0F0;} .st9{fill:#CB976E;} .st10{fill:#084FAB;} .st11{fill:#0D0F36;} .st12{fill:#515D84;} .st13{fill:#715154;} .st14{fill:#D0D0CE;} .st15{fill:#FFC2B0;} .st16{fill:#293160;} .st17{fill:#00418E;} .st18{fill:#FFFFFF;} .st19{fill:#00B8C7;} .st20{fill:#633C25;} .st21{fill:#424D77;} .st22{fill:#BBBBB9;} .st23{opacity:0.13;fill:url(#SVGID_3_);} .st24{fill:#FF8358;} .st25{fill:#A6A6A4;} .st26{fill:#E48767;} .st27{fill:#EEC09B;} .st28{fill:#DCEFFE;} .st29{opacity:0.59;} .st30{fill:#8DC0EF;} .st31{fill:#1A204F;} .st32{fill:#846063;} .st33{opacity:0.13;fill:url(#SVGID_4_);} .st34{fill:#F19177;} .st35{fill:#E7E7E6;} .st36{fill:#CED6E9;} .st37{fill:#1F3598;} .st38{fill:#1E4589;} .st39{fill:#FCD03A;} .st40{fill:none;stroke:#FCD03A;stroke-width:0.2549;stroke-miterlimit:10;} .st41{fill:#99E1E8;} .st42{fill:#66D3DD;} .st43{fill:#19BDCC;} .st44{fill:#15919E;} .st45{fill:#7FDAE3;} .st46{fill:#4CCBD7;} .st47{fill:#19A3B2;} .st48{fill:#117F8A;} .st49{fill:#DEDEDC;} .st50{fill:#D4D4D2;} .st51{fill:#919190;} .st52{fill:#686867;} .st53{fill:#7C7C7B;} .st54{fill:#D0D1CF;} .st55{fill:#FDD039;} .st56{fill:#00B37D;} .st57{fill:#EE3A64;} .st58{fill:#37416D;} .st59{fill:url(#SVGID_5_);} .st60{fill:url(#SVGID_6_);} .st61{fill:#EBC3B4;} .st62{fill:#EAB490;} .st63{fill:#E1AC78;} .st64{fill:#B98E63;} .st65{fill:#D9775E;} .st66{fill:#F8B97D;} .st67{fill:#DF9A6A;} .st68{fill:#42210B;} .st69{fill:#DBA77F;} .st70{opacity:0.24;} .st71{opacity:0.28;clip-path:url(#SVGID_10_);fill-rule:evenodd;clip-rule:evenodd;fill:#B2E9EE;} .st72{opacity:0.48;clip-path:url(#SVGID_10_);fill-rule:evenodd;clip-rule:evenodd;fill:#B2E9EE;} .st73{opacity:0.23;clip-path:url(#SVGID_10_);fill-rule:evenodd;clip-rule:evenodd;fill:#B2E9EE;} .st74{opacity:0.1;} .st75{fill:#191C3C;} .st76{opacity:0.35;fill:#CB976E;} .st77{opacity:0.35;fill:#E9D6B8;} .st78{fill:#0B6AA2;} .st79{opacity:0.4;} .st80{opacity:0.15;fill:#19A3B2;} .st81{opacity:0.8;} .st82{fill:none;} .st83{opacity:0.24;fill:#B2E9EE;} .st84{clip-path:url(#SVGID_12_);} .st85{opacity:0.23;fill-rule:evenodd;clip-rule:evenodd;fill:#B2E9EE;} .st86{clip-path:url(#SVGID_14_);} .st87{fill:#F9F7F9;} .st88{clip-path:url(#SVGID_16_);} .st89{opacity:0.48;fill:#B2E9EE;} .st90{fill:#161711;} .st91{fill:url(#SVGID_17_);} .st92{fill:url(#SVGID_18_);} .st93{fill:#DCFFFF;} .st94{fill:#77422B;} .st95{fill:#563321;} .st96{fill:#2E3191;} .st97{fill:none;stroke:#515D84;stroke-width:3;stroke-miterlimit:10;} .st98{fill:none;stroke:#FCD03A;stroke-width:0.3909;stroke-miterlimit:10;} .st99{fill:#E9D6B8;} .st100{opacity:0.7;fill:#D0D0CE;} .st101{opacity:0.43;} .st102{opacity:0.35;} .st103{filter:url(#Adobe_OpacityMaskFilter);} .st104{mask:url(#SVGID_19_);} .st105{filter:url(#Adobe_OpacityMaskFilter_1_);} .st106{clip-path:url(#SVGID_22_);} .st107{fill:#DB9B20;} .st108{clip-path:url(#SVGID_25_);} .st109{enable-background:new ;} .st110{clip-path:url(#SVGID_27_);enable-background:new ;} .st111{fill:#F9AE1A;} .st112{fill:url(#SVGID_28_);} .st113{fill:url(#SVGID_29_);} .st114{opacity:0.85;fill:#DEDEDC;} .st115{opacity:0.47;fill:#DF9A6A;} .st116{fill:#C98B61;} .st117{fill:#E2C59C;} .st118{fill:#CDD5D7;} .st119{fill:#B7BEC0;} .st120{opacity:0.19;fill:#B2E9EE;} .st121{fill:url(#SVGID_30_);} .st122{fill:url(#SVGID_31_);} .st123{opacity:0.44;} .st124{fill:none;stroke:#99E1E8;stroke-width:1.7712;stroke-linecap:round;stroke-miterlimit:10;} .st125{fill:url(#SVGID_32_);} .st126{fill:url(#SVGID_33_);} .st127{fill:url(#SVGID_34_);} .st128{fill:#F3F4F4;} .st129{opacity:0.55;fill:#D0D0CE;} .st130{fill:#CFD9E8;} .st131{fill:#AEBDDC;} .st132{fill:none;stroke:#BAC2C6;stroke-width:0.1562;stroke-miterlimit:10;} .st133{fill:none;stroke:#BAC2C6;stroke-width:0.1563;stroke-miterlimit:10;} .st134{opacity:0.34;fill:#FFFFFF;} .st135{fill:#C4DFFC;} .st136{opacity:0.56;} .st137{clip-path:url(#SVGID_36_);enable-background:new ;} .st138{clip-path:url(#SVGID_38_);enable-background:new ;} .st139{clip-path:url(#SVGID_40_);enable-background:new ;} .st140{clip-path:url(#SVGID_42_);enable-background:new ;} .st141{clip-path:url(#SVGID_44_);enable-background:new ;} .st142{clip-path:url(#SVGID_46_);enable-background:new ;} .st143{clip-path:url(#SVGID_48_);enable-background:new ;} .st144{clip-path:url(#SVGID_50_);enable-background:new ;} .st145{clip-path:url(#SVGID_52_);enable-background:new ;} .st146{clip-path:url(#SVGID_54_);enable-background:new ;} .st147{clip-path:url(#SVGID_56_);enable-background:new ;} .st148{clip-path:url(#SVGID_58_);enable-background:new ;} .st149{clip-path:url(#SVGID_60_);enable-background:new ;} .st150{clip-path:url(#SVGID_62_);enable-background:new ;} .st151{clip-path:url(#SVGID_64_);enable-background:new ;} .st152{clip-path:url(#SVGID_66_);enable-background:new ;} .st153{clip-path:url(#SVGID_68_);enable-background:new ;} .st154{clip-path:url(#SVGID_70_);enable-background:new ;} .st155{clip-path:url(#SVGID_72_);enable-background:new ;} .st156{clip-path:url(#SVGID_74_);enable-background:new ;} .st157{clip-path:url(#SVGID_76_);enable-background:new ;} .st158{clip-path:url(#SVGID_78_);enable-background:new ;} .st159{clip-path:url(#SVGID_80_);enable-background:new ;} .st160{clip-path:url(#SVGID_82_);enable-background:new ;} .st161{clip-path:url(#SVGID_84_);enable-background:new ;} .st162{clip-path:url(#SVGID_86_);enable-background:new ;} .st163{opacity:0.2;} .st164{clip-path:url(#SVGID_88_);} .st165{fill:#EC6867;} .st166{fill:#EE7D72;} .st167{fill:#F2947D;} .st168{fill:#CB547B;} .st169{opacity:0.38;} .st170{fill:#231F20;} .st171{opacity:0.5;fill:#FFFFFF;} .st172{opacity:0.37;} .st173{opacity:0.49;fill:#E7E7E6;} .st174{fill-rule:evenodd;clip-rule:evenodd;fill:#00B8C7;} .st175{fill-rule:evenodd;clip-rule:evenodd;fill:#15919E;} .st176{fill-rule:evenodd;clip-rule:evenodd;fill:#0D0F36;} .st177{fill-rule:evenodd;clip-rule:evenodd;fill:#424D77;} .st178{opacity:0.13;fill:url(#SVGID_89_);enable-background:new ;} .st179{clip-path:url(#SVGID_91_);} .st180{opacity:0.13;fill:url(#SVGID_92_);enable-background:new ;} .st181{clip-path:url(#SVGID_94_);} .st182{opacity:0.13;fill:url(#SVGID_95_);enable-background:new ;} .st183{clip-path:url(#SVGID_97_);} .st184{opacity:0.13;fill:url(#SVGID_98_);enable-background:new ;} .st185{clip-path:url(#SVGID_100_);} .st186{opacity:0.13;fill:url(#SVGID_101_);enable-background:new ;} .st187{fill:none;stroke:#888889;stroke-width:2.6607;stroke-linecap:round;stroke-miterlimit:10;stroke-dasharray:0.4434,9.7557;} .st188{opacity:0.13;fill:url(#SVGID_106_);enable-background:new ;} .st189{clip-path:url(#SVGID_108_);} .st190{clip-path:url(#SVGID_110_);} .st191{opacity:0;clip-path:url(#SVGID_112_);} .st192{opacity:0;} .st193{opacity:8.770000e-02;clip-path:url(#SVGID_112_);} .st194{opacity:8.770000e-02;} </style> <symbol id="New_Symbol_13" viewBox="-114.8 -241.2 229.6 482.3"> <path class="st0" d="M94.1,159.4c-3.2,17,5.7,32.7,12.8,50.1c2.3,5.6,4.6,11.4,4.4,17.5c-0.3,7.8-7.9,19.1-16.4,12 c-3.1-2.6-4.6-6.7-5.6-10.6c-2.6-10.4-2.1-21.1-6.2-31.2c-8.5-20.9-34.2-28.2-50-44.3c-8.1-8.3-13.6-19.1-15.4-30.6 c-2.5-15.8,1.5-33.1-6-47.3c-9-17.1-30.3-22.4-47.1-31.9C-60.8,28.6-78.1,0.4-79.4-29c-0.6-14.5,2.3-29.6-2.2-43.4 c-3.9-12.3-13.2-22-20-32.9c-21.1-33.9-16.5-81.7,10.7-111c13.5-14.5,32.5-24.6,52.3-24.9c19.9-0.3,40.1,10.4,48.9,28.2 c7.8,15.6,6,33.5,10.1,50.1c4.6,18.9,13.8,25,29,36.3c13.1,9.8,26.7,20.1,34.1,34.7c5.2,10.2,6.9,21.8,7.2,33.2 c0.4,16-1.9,32.1-6.9,47.4c-4.3,13.1-10.6,26.2-9.5,40c1.3,16.5,12.9,30.1,23,43.2s19.9,28.9,16.7,45.1c-2,10.4-9,18.9-14.5,28 C96.8,150,95,154.7,94.1,159.4z"></path> <g> <path class="st1" d="M44.5-53.7C27.1-61.2,13.3-67-3-76.8c-0.6-0.3-3.1-4-2.5-3.7C10.8-70.7,27.6-62.1,45-54.5 C45.6-54.3,45.1-53.4,44.5-53.7z"></path> <path class="st1" d="M78,102.3C64.1,90.2,51.9,78.2,41.5,63c-0.1,0.1-0.2-1.7-0.3-1.7C42,66.1,42.9,71,44,75.9 c6.8,31.1,18.4,61,34.1,88.7c0.3,0.6-0.5,1.1-0.9,0.5c-14.7-25.9-25.8-53.8-32.8-82.8c-3.5-14.4-5.7-29-7.4-43.7 c-1.8-15.8-3.6-31.7-8.2-47C23.5-25.9,17.9-37.6,9-53.6C8.7-36.9-5.7-15.5-19.2,1.7c-0.4,0.5-1.1-0.2-0.7-0.7 C-6.4-16.1,8.3-40.1,7.3-53.6c-0.3-4.9-1.7-5.7-1.4-5.6C1.5-67.1-3-74.8-7.5-82.6c-13.1-22.7-25.4-45.8-32.1-71.1 c-1-3.7-0.8-2.1-0.5-1.8c-0.3-1.3-0.7-2.6-1-3.9c-3.7-16.1-5.4-32.7-5.1-49.3c0.2-8.3,0.9-16.6,2.1-24.8c0.2-1,0.2-6.1,2.4-5.7 c1,0.2,1,1.5,0.2,2c-0.1,0.1-0.4,0.1-0.5,0c-0.1,0-0.1-0.1-0.2-0.1c0,0,0,0-0.1-0.1c-0.5,1.5-1,4.7-1,5c-0.3,2.1-0.6,4.2-0.8,6.2 c-0.4,3.6-0.7,7.3-0.9,11c-0.4,7-0.4,14.1,0,21.1c0.7,13.4,2.8,26.8,6.2,39.8c11.6,10.6,25.8,17.9,41.2,21.1 c0.6,0.1,0.4,1.1-0.3,1c-15-3.2-28.5-8.5-40-18.7c0.2,0.6-0.2-0.6,0,0c7.2,25.8,21.5,51,34.9,74C9.9-54.5,22-34.1,29.5-9.4 c4.1,13.5,6.1,27.4,7.7,41.3c1,8.8,2.1,17.6,3.5,26.4c10.7,16.1,23.5,30.6,38,43.3C79.2,102,78.5,102.8,78,102.3z"></path> <path class="st1" d="M44.2,86.3c-1.3-15.5,1.6-0.3,1.7,0.4c0.7,14.4-3.4,28.3-10.7,40.7c-0.3,0.6-1.2,0.1-0.9-0.5 C41.5,114.6,45.3,100.5,44.2,86.3z"></path> <path class="st1" d="M-65.5-128.8c8.3-24.7,15.3-56,19.1-81.8c0.1-0.6,0.3,7.9,0.2,8.5c-3.8,25.8-10.1,48.9-18.4,73.6 C-64.8-127.9-65.7-128.2-65.5-128.8z"></path> </g> </symbol> <g id="background-element-1"> </g> <g id="background-element-2"> </g> <g id="man"> </g> <g id="man-head"> </g> <g id="woman"> </g> <g id="woman-head"> </g> <g id="woman-hair-front"> </g> <g id="table"> </g> <g id="coffee-steam-3"> </g> <g id="coffee-steam-4"> </g> <g id="man-hand-with-coffee"> </g> <g id="man-arm"> </g> <g id="woman-arm"> </g> <g id="woman-sleeve"> </g> <g id="coffee-steam-1"> </g> <g id="coffee-steam-2"> </g> <g id="woman-hand-with-coffee"> </g> <g id="left-hand"> </g> <g id="left-hand-pointer"> </g> <g id="phone"> </g> <g id="phone-screen"> </g> <g id="gift-shape"> </g> <g id="gift-coffee"> </g> <g id="phone-text-line1"> </g> <g id="phone-text-line2"> </g> <g id="phone-text-line3"> </g> <g id="phone-text-line4"> </g> <g id="phone-button"> </g> <g id="left-hand-pinkie-shadow"> </g> <g id="left-hand-pinkie"> </g> <g id="left-hand-ringfinger-shadow"> </g> <g id="left-hand-ringfinger"> </g> <g id="left-hand-middlefinger-shadow"> </g> <g id="left-hand-middlefinger"> </g> <g id="right-hand-shadow"> </g> <g id="right-hand"> </g> <g id="Layer_1"> <g> <linearGradient id="SVGID_1_" gradientUnits="userSpaceOnUse" x1="1758.2605" y1="278.252" x2="2094.4639" y2="278.252" gradientTransform="matrix(-0.9994 3.581144e-02 3.581144e-02 0.9994 2145.2585 -38.0934)"> <stop offset="0" style="stop-color:#1E4589"></stop> <stop offset="1" style="stop-color:#00B8C7"></stop> </linearGradient> <path style="opacity:0.13;fill:url(#SVGID_1_);" d="M366.8,271.9c21,9.3,42.4,37.3,25.6,59.9c-7.1,9.5-18.4,14.7-29.6,18.4 c-17,5.6-35.1,8.7-53,7.3c-38.6-3-75.3-26.2-113.6-20.7c-41.7,6-89,43.3-125,0.2c-13.1-15.7-12.8-43.2,4.6-54 c12.6-7.9,29-5,43,0.1c14,5,27.8,12.1,42.6,11.7c19.6-0.5,36.2-13.4,53.5-22.6C261.3,247.8,318.9,250.5,366.8,271.9z"></path> <g> <g id="XMLID_578_"> <g> <g> <g> <g> <g> <g> <g> <g> <g> <g> <g> <g> <g> <g> <g> <g> <g> <g> <path class="st8" d="M258.7,157.1c-4.3,1.8-6.8,0-8.4-4.1c-1.7-4.3-1.6-9.6,2.8-11.8c2-1,5.6-4.3,8.5-8.6 c1.4-2.1,2.4-4.5,3-7c0-0.1,0-0.2,0.1-0.3l5.7-22.5c1.2-4.8,5.9-8,10.4-7.3c4.6,0.8,7.3,5.3,6.1,10.1 l-5.6,22.4c-1.1,4.9-3.1,9.5-5.8,13.7c-4.6,6.9-10.6,12.6-16.1,15.3C259,157,258.9,157,258.7,157.1z"></path> </g> </g> </g> </g> </g> </g> </g> </g> </g> </g> </g> </g> </g> </g> </g> </g> </g> <g> <g> <g> <g> <g> <g> <g> <g> <g> <g> <g> <g> <g> <g> <g> <g> <g> <path class="st9" d="M251.3,158.8c-6.9,3.6-16.8,6.3-27.1,6.2c-3.5,0-7.6-0.5-6.4-4.5c1.3-4,5.1-7.1,8.6-7.1 c11,0.1,26.5-9.4,26.7-9.5c3.6-2.2,6.2-0.5,7.1,2.8c1,3.3,0,6.8-3.6,9C256.5,155.9,254.4,157.1,251.3,158.8z"></path> </g> </g> </g> </g> </g> </g> </g> </g> </g> </g> </g> </g> </g> </g> </g> </g> </g> </g> <g> <g> <g> <g> <g> <g> <g> <g> <g> <g> <g> <g> <g> <g> <g> <g> <g> <path class="st10" d="M304,286.2c-0.1,0.2-0.1,0.4-0.2,0.7L304,286.2z"></path> </g> </g> </g> </g> </g> </g> </g> </g> </g> </g> </g> </g> </g> </g> </g> </g> <g> <g> <g> <g> <g> <g> <g> <g> <g> <g> <g> <g> <g> <g> <g> <g> <path class="st10" d="M304,286.2c0-0.1,0-0.1,0.1-0.2c0.1-0.5,0.2-0.9,0.4-1.4L304,286.2z"></path> </g> </g> </g> </g> </g> </g> </g> </g> </g> </g> </g> </g> </g> </g> </g> </g> <g> <g> <g> <g> <g> <g> <g> <g> <g> <g> <g> <g> <g> <g> <g> <g> <path class="st11" d="M316.5,287.6c-0.1-2.7-1.2-4.6-4.2-5c-2-0.2-4.1-0.3-5.8,0.6c-1.1,0.6-2,1.6-2.5,2.8 c-1.2,3.2-4.6,30.4,2.2,26.9C313.6,309.1,316.7,294.8,316.5,287.6z"></path> </g> </g> </g> </g> </g> </g> </g> </g> </g> </g> </g> </g> </g> </g> </g> </g> </g> <g> <g> <g> <g> <g> <g> <g> <g> <g> <g> <g> <g> <g> <g> <g> <g> <path class="st11" d="M291.7,275.8c-5.5-6.4-11.7,2.7-14.6,6.4c-2,2.5-8.9,9.3-8.1,12.8 c0.3,1.2,0.4,1.2,1.6,1.5c1.2,0.3,2.5,0.2,3.8-0.1c6.5-1.6,11.6-5.2,14.5-10.8c0.1,1.6,0.1,3.1,0.1,4.7 c0,0.3,0.4,0.6,0.7,0.4c0.6-0.4,1.2-0.8,1.8-1.2c2.2-1.6,1.2-3.9,1.8-6.5C293.9,280.5,293.4,277.8,291.7,275.8z "></path> </g> </g> </g> </g> </g> </g> </g> </g> </g> </g> </g> </g> </g> </g> </g> </g> <g> <g> <g> <g> <g> <g> <g> <g> <g> <g> <g> <g> <g> <g> <g> <g> <path class="st9" d="M313.2,226.1l-0.3-55.2l4.7-13.2l-28.2,4.1l-17.3-7.1l1.7,69.9c0,0,6.9,51.2,7,51.7 c0.2,1.8-2.8,6.3-3.9,7.7c-0.7,1-1.6,2-1.8,3.2c-0.4,2.9,2.7,2.5,4.4,2c3.5-1.2,14-8.7,11-13.6 c0.1-0.4,0,0.4,0,0l0.9-46.8l2.4-47.8l1.3,22.3l1.5,22.7l8.5,59.8c-0.3,2.4-0.6,4.9-0.9,7.3 c-0.2,1.8-0.4,5.6,0.1,7.4c0.2,0.8,0.8,1.6,1.7,1.6c0.5,0,0.9-0.3,1.2-0.5c3.9-2.8,6.6-9,7.2-13.5 c0.2-1.5,0.2-3.1-0.4-4.5L313.2,226.1z"></path> </g> </g> </g> </g> </g> </g> </g> </g> </g> </g> </g> </g> </g> </g> </g> </g> <g> <path class="st12" d="M276.5,141.7l-3.3,5c-2.6,3.9-3.9,8.5-3.9,13.2l0.9,68.1c0,0,31.3,15.2,47.5-2l0.7-48.7 c0,0,3.9-27.5-7.8-33.9L276.5,141.7z"></path> </g> <g> <g> <g> <g> <g> <g> <g> <g> <g> <g> <g> <g> <g> <g> <g> <g> <path class="st13" d="M289.7,82.2C289.7,82.2,289.7,82.3,289.7,82.2c0.1,0,0.1-0.2,0.1-0.2 C289.8,82.1,289.8,82.2,289.7,82.2z"></path> </g> </g> </g> </g> </g> </g> </g> </g> </g> </g> </g> </g> </g> </g> </g> </g> <g> <g> <g> <g> <g> <g> <g> <g> <g> <g> <g> <g> <g> <g> <g> <g> <path class="st14" d="M316.5,109.8l-2.4,9l-4.7,27.2c-0.5,1.8-3.7,3.4-5.3,4.2c-4.3,2.1-12.7,3.2-25.2-2.1 c-1.9-0.8-3.4-2.6-3.8-4.8l-4.9-20.2l-0.1-0.4c-0.6-3.1-0.1-6.4,1.3-9.2l4.5-8.7v-4.7c0-5.5,4.9-9.5,9.8-8 l4.4,1.5l11.9,4.2l10.3,3.6C315.7,102.6,317.5,106.3,316.5,109.8z"></path> </g> </g> </g> </g> </g> </g> </g> </g> </g> </g> </g> </g> </g> </g> </g> </g> <g> <g> <g> <g> <g> <g> <g> <g> <g> <g> <g> <g> <g> <g> <g> <g> <path class="st8" d="M316.5,109.8l-2.4,9c-1.2,1.5-2.4,3-3.6,4.4c-2.5,3.1-5.2,6.4-8.7,8 c-5.8,2.7-12.6,0.5-18.5-2c-3.7-1.5-7.3-3.2-10.9-4.9c-0.7-0.3-1.5-0.7-2.2-1.1l-0.1-0.4 c-0.6-3.1-0.1-6.4,1.3-9.2l4.5-8.7v-4.7c0-5.5,4.9-9.5,9.8-8l4.4,1.5l11.9,4.2l10.3,3.6 C315.7,102.6,317.5,106.3,316.5,109.8z"></path> </g> </g> </g> </g> </g> </g> </g> </g> </g> </g> </g> </g> </g> </g> </g> </g> <g> <g> <g> <g> <g> <g> <g> <g> <g> <g> <g> <g> <g> <g> <g> <g> <path class="st9" d="M302.2,97.9c-3.3,2.8-6.8,5.4-10.4,7.7c-1.2,0.8-2.6,1.6-4.1,1.3c-0.3,0-0.6-0.2-0.9-0.4 c-0.4-0.5-0.4-1.3-0.2-1.9c0.8-3.8,2-7.5,3.7-10.9L302.2,97.9z"></path> </g> </g> </g> </g> </g> </g> </g> </g> </g> </g> </g> </g> </g> </g> </g> </g> <g> <g> <g> <g> <g> <g> <g> <g> <g> <g> <g> <g> <g> <g> <g> <g> <polygon class="st9" points="302.2,82.2 302.2,97.9 289.8,98.9 289.8,82.2 "></polygon> </g> </g> </g> </g> </g> </g> </g> </g> </g> </g> </g> </g> </g> </g> </g> </g> <g> <g> <g> <g> <g> <g> <g> <g> <g> <g> <g> <g> <g> <g> <g> <g> <polygon class="st15" points="296.6,94.1 288.3,98.6 288.3,98.5 291.4,89.8 "></polygon> </g> </g> </g> </g> </g> </g> </g> </g> </g> </g> </g> </g> </g> </g> </g> </g> <g> <g> <g> <g> <g> <g> <g> <g> <g> <g> <g> <g> <g> <g> <g> <g> <g> <g> <path class="st16" d="M314.7,64.6c-6.6-2.1-3.5-7-7.4-11.2c-4.5-4.9-12.3-2.2-16.4,1.6 c-0.5,0.4-0.9,0.9-1.6,1c-4.1,1-6.1-2.3-9.8,1.9c-2.5,2.8-4.3,7.3-6.8,10.4c-1.5,1.8-3,4.4-1.6,6.2 c1,1.3,3.2,1.6,3.8,3.2c0.4,1.1-0.2,2.2-0.5,3.3c-0.9,2.9,0.4,6.4,2.9,8.1c6.5,4.4,9.2-2.5,13.9-4.8 c7-3.5,8.3,7.2,13.2,9.7c3.1,1.5,7.3-0.2,8.4-3.5c0.8-2.3,0.1-4.8,0.2-7.2c0.1-5.7,5.8-4.3,7.1-9.1 C321.2,70.5,318.3,65.8,314.7,64.6z"></path> </g> </g> </g> </g> </g> </g> </g> </g> </g> </g> </g> </g> </g> </g> </g> </g> <g> <g> <g> <g> <g> <g> <g> <g> <g> <g> <g> <g> <g> <g> <g> <g> <path class="st16" d="M297.9,61.4c1.1-1.8,0.6-4.1,0-6.1c0.6-0.3,1.2-0.5,1.8-0.6c0.2-0.3,0.3-0.7,0.5-1 c-1.1-0.9-2.1-1.2-3.5,0c-2.2,1.9-3.9,4.8-3.6,7.7c0.1,0.9,0.4,1.8,1,2.6C295.5,63.3,297,62.7,297.9,61.4z"></path> </g> </g> </g> </g> </g> </g> </g> </g> </g> </g> </g> </g> </g> </g> </g> </g> </g> <g> <g> <g> <g> <g> <g> <g> <g> <g> <g> <g> <g> <g> <g> <g> <g> <g> <path class="st16" d="M310.7,63.1c-1.5-1.7-3.4-3.1-5.3-4.4c-1.1-0.7-2.2-1.4-3.4-1.7c-3.6-1.1-11.9,0.7-15,3 c-5.8,4.4-9.8,11-9,17.7c2.2,18.7,27.8,14.3,34.6,1.3c2-3.9,2.3-8.7,0.4-12.6 C312.4,65.2,311.7,64.1,310.7,63.1z"></path> </g> </g> </g> </g> </g> </g> </g> </g> </g> </g> </g> </g> </g> </g> </g> </g> </g> <g> <g> <g> <g> <g> <g> <g> <g> <g> <g> <g> <g> <g> <g> <g> <g> <g> <path class="st9" d="M277.7,81.7c0.1,3.7,0.8,7.3,2.9,10c2.4,3,6.2,4.2,9.8,4.3c2,0,4.1-0.2,5.8-1.3 c3.3-2,4.9-6.3,5.7-10.4c0.3-1.5,0.5-3.1,0.6-4.7c0.1-1.8,0-3.6-0.5-5.3c-1-3.7-3.6-6.8-6.7-8.7 c-3.1-1.9-6.6-2.8-10.1-3.2c-1.7-0.2-3.6-0.3-5.1,0.6c-1,0.6-1.8,1.7-2.1,2.9c-0.1,0.4-0.1,0.9,0,1.3 c-0.1,3.3-0.2,6.6-0.3,10C277.7,78.6,277.7,80.2,277.7,81.7z"></path> </g> </g> </g> </g> </g> </g> </g> </g> </g> </g> </g> </g> </g> </g> </g> </g> </g> <g> <g> <g> <g> <g> <g> <g> <g> <g> <g> <g> <g> <g> <g> <g> <g> <g> <path class="st16" d="M286.1,70.4c1.2,3,2.9,5.8,5.2,8c2.3,2.2,5.4,3.7,8.7,3.7c1.5,0,3.1-0.4,4.1-1.5 c0.5-0.6,0.8-1.4,1-2.2c0.8-3.1,0.7-6.5-0.6-9.4c-1.3-2.9-3.9-5.4-7-6.2c-3.3-0.9-6.8,0.1-9.6,1.9 c-2,1.3-3.9,3.5-3.3,5.8L286.1,70.4z"></path> </g> </g> </g> </g> </g> </g> </g> </g> </g> </g> </g> </g> </g> </g> </g> </g> </g> <g> <g> <g> <g> <g> <g> <g> <g> <g> <g> <g> <g> <g> <g> <g> <g> <g> <rect x="293.6" y="84.1" transform="matrix(0.8636 -0.5042 0.5042 0.8636 -1.8008 162.2993)" class="st17" width="11" height="0.8"></rect> </g> </g> </g> </g> </g> </g> </g> </g> </g> </g> </g> </g> </g> </g> </g> </g> </g> <g> <g> <g> <g> <g> <g> <g> <g> <g> <g> <g> <g> <g> <g> <g> <g> <g> <g> <path class="st9" d="M304.7,80.6c-1.3-0.4-2.5,1-3,2.6c-0.3,0.8-0.4,1.7-0.8,2.4c-0.2,0.4-0.6,0.7-0.9,0.8 c-0.4,1.2,0.4,2.8,1.4,3.1c1.1,0.4,2.2-0.3,3.1-1.2c0.9-1,1.8-2.3,2-3.8C306.4,82.8,305.8,81,304.7,80.6z"></path> </g> </g> </g> </g> </g> </g> </g> </g> </g> </g> </g> </g> </g> </g> </g> </g> </g> </g> <g> <g> <g> <g> <g> <g> <g> <g> <g> <g> <g> <g> <g> <g> <g> <g> <g> <g> <g> <g> <path class="st17" d="M284.1,81.2c0.2-0.8,0.7-1.1,1.3-0.7c0.6,0.3,1.1,1.2,1.3,2.2l0.4-0.1 c-0.3-1.3-0.9-2.5-1.7-2.9c-0.7-0.4-1.4-0.1-1.7,0.9L284.1,81.2z"></path> </g> </g> </g> </g> </g> </g> </g> </g> </g> </g> </g> </g> </g> </g> </g> </g> </g> </g> </g> <g> <g> <g> <g> <g> <g> <g> <g> <g> <g> <g> <g> <g> <g> <g> <g> <g> <g> <g> <path class="st17" d="M284.1,81.2c0.2-0.8,0.7-1.1,1.3-0.7c0.6,0.3,1.1,1.2,1.3,2.2l0.4-0.1 c-0.3-1.3-0.9-2.5-1.7-2.9c-0.7-0.4-1.4-0.1-1.7,0.9L284.1,81.2z"></path> </g> </g> </g> </g> </g> </g> </g> </g> </g> </g> </g> </g> </g> </g> </g> </g> </g> </g> <g> <g> <g> <g> <g> <g> <g> <g> <g> <g> <g> <g> <g> <g> <g> <g> <g> <g> <path class="st17" d="M292.2,90.9c-0.6,0-1.2-0.2-1.9-0.6c-2.2-1.3-4-4.4-4-6.9c0-1.3,0.5-2.3,1.3-2.8 c0.8-0.5,1.9-0.4,3.1,0.3c2.2,1.3,4,4.4,4,6.9c0,1.3-0.5,2.3-1.3,2.8C293,90.8,292.6,90.9,292.2,90.9z M288.8,81.1c-0.3,0-0.6,0.1-0.8,0.2c-0.6,0.3-0.9,1.1-0.9,2.1c0,2.3,1.6,5.1,3.6,6.3 c0.9,0.5,1.7,0.6,2.3,0.3c0.6-0.3,0.9-1.1,0.9-2.1c0-2.3-1.6-5.1-3.6-6.3 C289.8,81.2,289.3,81.1,288.8,81.1z"></path> </g> </g> </g> </g> </g> </g> </g> </g> </g> </g> </g> </g> </g> </g> </g> </g> </g> </g> <g> <g> <g> <g> <g> <g> <g> <g> <g> <g> <g> <g> <g> <g> <g> <g> <g> <g> <path class="st17" d="M282.1,85.1c-0.6,0-1.2-0.2-1.9-0.6c-2.2-1.3-4-4.4-4-6.9c0-1.3,0.5-2.3,1.3-2.8 c0.8-0.5,1.9-0.4,3.1,0.3c2.2,1.3,4,4.4,4,6.9c0,1.3-0.5,2.3-1.3,2.8C282.9,85,282.5,85.1,282.1,85.1z M278.7,75.2c-0.3,0-0.6,0.1-0.8,0.2c-0.6,0.3-0.9,1.1-0.9,2.1c0,2.3,1.6,5.1,3.6,6.3 c0.9,0.5,1.7,0.6,2.3,0.3s0.9-1.1,0.9-2.1c0-2.3-1.6-5.1-3.6-6.3C279.6,75.4,279.1,75.2,278.7,75.2z"></path> </g> </g> </g> </g> </g> </g> </g> </g> </g> </g> </g> </g> </g> </g> </g> </g> </g> </g> </g> </g> <g> <g> <g> <g> <g> <g> <g> <g> <g> <g> <g> <g> <g> <g> <g> <g> <g> <path class="st16" d="M289.2,68.6c-3.6,2.2-7.5,4-11.5,5.3c-1.6-2.3-1.7-5.5-0.7-8.1c1-2.6,3.1-4.8,5.5-6.2 c4.3-2.6,10.4-3,13.8,0.6c0.6,0.6,1.2,1.4,1.2,2.3c0.2,2-1.8,3.4-3.6,4.3c-2.7,1.4-5.4,2.6-8.3,3.6 L289.2,68.6z"></path> </g> </g> </g> </g> </g> </g> </g> </g> </g> </g> </g> </g> </g> </g> </g> </g> </g> </g> <g> <g> <g> <g> <g> <g> <g> <g> <g> <g> <g> <g> <g> <g> <g> <g> <g> <path class="st18" d="M314.9,130.5l3.6-7.6l-3-1.4c-0.4-0.2-0.9-0.2-1.3,0.1l-24.3,14 c-0.4,0.2-0.7,0.7-0.7,1.2l0,37.4c0,0.5,0.3,1,0.8,1.3l1.4,0.7c0.8,0.4,1.8,0,2.1-0.8l1.8-3.8l19.5-11.3 L314.9,130.5z"></path> </g> </g> </g> </g> </g> </g> </g> </g> </g> </g> </g> </g> </g> </g> </g> </g> <g> <g> <g> <g> <g> <g> <g> <g> <g> <g> <g> <g> <g> <g> <g> <g> <path class="st19" d="M318.5,161.9L295,175.4c-1,0.5-2.1-0.1-2.1-1.2l0-34.5c0-1.3,0.7-2.5,1.8-3.2l23.8-13.7 L318.5,161.9z"></path> </g> </g> </g> </g> </g> </g> </g> </g> </g> </g> </g> </g> </g> </g> </g> </g> <g> <g> <g> <g> <g> <g> <g> <g> <g> <g> <g> <g> <g> <g> <g> <g> <g> <path class="st8" d="M327.3,150.9c-2.8,0-5.5-1.6-6.8-4.2l-15.7-32.4c-1.8-3.7-0.3-8.3,3.5-10.1 c3.7-1.8,8.3-0.3,10.1,3.5l15.7,32.4c1.8,3.7,0.3,8.3-3.5,10.1C329.5,150.7,328.4,150.9,327.3,150.9z"></path> </g> </g> </g> </g> </g> </g> </g> </g> </g> </g> </g> </g> </g> </g> </g> </g> </g> <g> <g> <g> <g> <g> <g> <g> <g> <g> <g> <g> <g> <g> <g> <g> <g> <g> <g> <path class="st9" d="M304.7,152.4c12.1-2.7,16.1-10,16.1-10c0.6-3.5,3.9-5.9,7.4-5.3 c3.5,0.6,5.9,3.9,5.3,7.4c-0.3,1.7-5,12.5-26.3,17.1C302.4,162.6,300.8,153.2,304.7,152.4z"></path> </g> </g> </g> </g> </g> </g> </g> </g> </g> </g> </g> </g> </g> </g> </g> </g> </g> </g> <path class="st9" d="M311.7,159.5c0,0-6.3,3.8-13.5,4.9c-3.9,0.6-5.5-5.4-6.6-6.8c-1.1-1.3-1.7-6.2,2.6-6.3 c6.6-0.1,18.3,2.3,18.3,2.3L311.7,159.5z"></path> <path class="st9" d="M293.5,151.2c0,0-13.2,0.8-11.3,2.9c1.2,1.4,8,0.1,8.3,0.6c0.4,0.6-10.7,1.2-10.3,2.4 c0.6,2.3,10.9,1.1,11.4,1.6c0.5,0.5-10.4,1.1-10.2,2.1c0.4,2,11.1,0.6,11.3,1.3c0.1,0.4-7.4,2-4.4,3.2 c2.1,0.9,11.8-1.4,11.8-1.4"></path> <path class="st9" d="M302.4,152.7c0,0-8.5-8.3-9.5-6.6s2.4,5.2,4.7,7.5"></path> </g> </g> <g id="XMLID_577_"> <g> <g> <path class="st20" d="M210.2,163.5c0,0,6.3,3.8,13.5,4.9c3.9,0.6,5.5-5.4,6.6-6.8c1.1-1.3,1.7-6.2-2.6-6.3 c-6.6-0.1-18.3,2.3-18.3,2.3L210.2,163.5z"></path> <path class="st9" d="M234.6,153.4c0,0-11.8-5.3-12.1-3.6c-0.3,1.8,3.6,3.6,6.2,4.8"></path> <path class="st20" d="M228.4,155.2c0,0,13.2,0.8,11.3,2.9c-1.2,1.4-8,0.1-8.3,0.6c-0.4,0.6,10.7,1.2,10.3,2.4 c-0.6,2.3-10.8,0.9-11.4,1.4c-0.5,0.5,10.1,1.3,10.1,2.3c0,2.9-11.1,0.7-11.3,1.5c-0.1,0.4,7,2.3,4.4,3 c-2.2,0.6-11.8-1.4-11.8-1.4"></path> <g> <g> <g> <g> <g> <g> <g> <g> <g> <g> <g> <g> <path class="st13" d="M146,89C146,89,146,89,146,89c0.1,0,0.1-0.2,0.1-0.2C146.1,88.8,146.1,88.9,146,89z"></path> </g> </g> </g> </g> </g> </g> </g> </g> </g> </g> </g> </g> <g> <g> <g> <g> <g> <g> <g> <g> <g> <g> <g> <g> <path class="st20" d="M141.3,95.6l-2.4,16.7c-0.3,2.3,2.4,4.2,6.1,4.2c3.7,0,6.9-1.9,7.3-4.2h0.1l2.4-16.7H141.3z "></path> </g> </g> </g> </g> </g> </g> </g> </g> </g> </g> </g> </g> <g> <g> <g> <g> <g> <g> <g> <g> <g> <g> <g> <g> <g> <path class="st20" d="M138.1,94.1c-3-5.4-3.6-11.6,2-16.4c4.5-3.8,17.6-9.1,22.7-4.6c5.5,4.8,4.8,22.6,0.8,28.4 c-3.5,5.1-10.1,5.7-15.2,3C144.8,102.5,140.6,98.6,138.1,94.1z"></path> </g> </g> </g> </g> </g> </g> </g> </g> </g> </g> </g> </g> <g> <g> <g> <g> <g> <g> <g> <g> <g> <g> <g> <g> <path class="st11" d="M130.3,77.5c0.2-2.6,1.2-4.6,2.7-6.2c1.1-0.8,2.3-1.7,3.5-2.4c3.8-1.8,8.2-2.4,12.4-2.7 c3-0.2,7.4,1.3,10.1,0.5c1.7-0.5,2.8-2.3,4.5-2.8c2.7-0.8,5.4,2.1,5.5,5c0.1,2.6-1.6,6.5-3.5,8.3 c-1.1,1-8,2.8-8,4.1c0,0.5-0.1,1.1-0.4,1.6c-0.3,5.1-2.2,10.1-5.4,14.1c-0.8,1.2-1.7,2.4-3,3.8 C135.6,115,129.7,84.9,130.3,77.5z"></path> </g> </g> </g> </g> </g> </g> </g> </g> </g> </g> </g> </g> <g> <g> <g> <g> <g> <g> <g> <g> <g> <g> <g> <g> <path class="st20" d="M150.4,93c0.7,2.6,2.8,4.2,4.6,3.7c1.9-0.5,2.8-3,2.1-5.6c-0.7-2.6-2.8-4.2-4.6-3.7 C150.6,87.9,149.7,90.4,150.4,93z"></path> </g> </g> </g> </g> </g> </g> </g> </g> </g> </g> </g> </g> <g> <g> <g> <g> <g> <g> <g> <g> <g> <g> <g> <g> <path class="st11" d="M157.7,93.3h-0.1c-1.1,0-2-0.9-2-2V79.8c0-1.1,0.9-2,2-2h0.1c1.1,0,2,0.9,2,2v11.6 C159.7,92.4,158.8,93.3,157.7,93.3z"></path> </g> </g> </g> </g> </g> </g> </g> </g> </g> </g> </g> </g> </g> <g> <g> <g> <g> <g> <g> <g> <g> <g> <g> <g> <g> <path class="st8" d="M135.5,115.4c0-2-0.2-3.8,0-5.4c0.2-1.6,0.9-3,2.7-4.2c3.7-2.5,8.6-1.6,12.1,0.8 c4.8,3.2,3.9,6.1,3.9,11c0.1,6.8,0.4,17.6,0.6,24.4l0,0l0,0l0,0l-2.1,0.7c-1,0.3-2,0.6-3,0.7 c-2.3,0.2-3.9-0.2-6.1-1.2l-2.2-5.6l-0.4,4.2l-4.9-2.4c-0.7-0.4-1.2-1.2-1.1-2 C135.2,130.8,135.3,121.1,135.5,115.4z"></path> </g> </g> </g> </g> </g> </g> </g> </g> </g> </g> </g> </g> <g> <g> <g> <g> <g> <g> <g> <g> <g> <g> <g> <g> <path class="st21" d="M148.8,301.4c-7.6-2.1-24.1,0.3-23.3,5.5c-0.3,1-0.4,2-0.4,3c-0.4,10.5,14.8,4.3,20,1.4 C154.8,305.9,153.7,302.7,148.8,301.4z"></path> </g> </g> </g> </g> </g> </g> </g> </g> </g> </g> </g> </g> <g> <g> <g> <g> <g> <g> <g> <g> <g> <g> <g> <path class="st21" d="M122.6,157.4c-1.3,5.1-1.6,10.4-0.9,15.7c0.3,2.6,0.9,5.1,1.7,7.6l9.6,28.2 c1.2,3.6-0.4,7.6-3.6,8.9c-0.5,0.2-1,0.3-1.5,0.4c-2.8,0.3-5.5-1.6-6.6-4.6l-9.6-28.2c-1.4-4.1-2.3-8.5-2.7-12.8 c-0.6-6.5-0.1-13,1.5-19.2l7.8-30.6c1-3.7,4.4-5.8,7.8-4.6c3.3,1.1,5.3,5,4.3,8.7L122.6,157.4z"></path> </g> </g> </g> </g> </g> </g> </g> </g> </g> </g> </g> <g> <g> <g> <g> <g> <g> <g> <g> <g> <g> <g> <g> <path class="st21" d="M158.8,316.3c-1.6,0-3,1.3-3.7,2.7c-0.6,1.5-0.6,3.2-0.6,4.8c0,1.4,0.1,3,1.1,4 c0.7,0.6,1.6,0.9,2.5,1.1c7.7,2.1,16.7,0.5,24.1-1.9c1.6-0.5,3-1.9,3-3.5c0-2.4-2.7-3.8-5-4.5 c-6.2-1.9-13.7-3.2-20.3-3.3c-1.2,0-2.8,0.5-2.7,1.7L158.8,316.3z"></path> </g> </g> </g> </g> </g> </g> </g> </g> </g> </g> </g> </g> <g> <g> <g> <g> <g> <g> <g> <g> <g> <g> <g> <g> <path class="st8" d="M130.9,309.5l0.4,0c2.4,0,4.3-1.9,4.3-4.2l0.1-7.2c0-2.4-1.9-4.3-4.2-4.3l-0.4,0 c-2.4,0-4.3,1.9-4.3,4.2l-0.1,7.2C126.6,307.5,128.5,309.4,130.9,309.5z"></path> </g> </g> </g> </g> </g> </g> </g> </g> </g> </g> </g> </g> <g> <g> <g> <g> <g> <g> <g> <g> <g> <g> <g> <g> <path class="st8" d="M161.8,321.6h0.4c2.4,0,4.3-1.9,4.3-4.3v-7.2c0-2.4-1.9-4.3-4.3-4.3h-0.4 c-2.4,0-4.3,1.9-4.3,4.3v7.2C157.6,319.6,159.5,321.6,161.8,321.6z"></path> </g> </g> </g> </g> </g> </g> </g> </g> </g> </g> </g> </g> <g> <g> <g> <g> <g> <g> <g> <g> <g> <g> <g> <path class="st14" d="M170,199.4l-9-21.5l-43,6.7l0,15.1c0,0,7.2,42,7.5,43.6l-1.3,52.5c0.4,2.4,3.4,5.3,5.8,5.5 l2.6,0.2c3.1,0.2,6.8-2.3,6.7-5.5l4.8-44.9l-2.6-34.6l7.6,6.4l0.2-0.1l5.3,31.8c2.3,12.3,0,53,0,53 c0.2,2.8,3.6,4.9,6.4,4.9h3.7c3,0,6.4-2.4,6.4-5.4l1-48.7c0.3-3.8,0.3-7.6-0.1-11.3L170,199.4z"></path> </g> </g> </g> </g> </g> </g> </g> </g> </g> </g> </g> <path class="st12" d="M170.9,204.2c-0.5-17.8-1.3-42.2-1.4-58.3c0-1.9,0-3.6,0-5.3c0.2-9.8,0.3-17-10.8-24.5 c-8.3-5.6-21.9-9.5-33-2.1c-4.4,2.9-6.8,6.6-7.5,11.6c-0.4,2.7-0.3,5.5-0.2,8.5c0.1,1.9,0.1,3.8,0.1,5.8 c-0.2,7.5-0.4,17.7-0.6,27.6c-0.2,9.9-0.4,20-0.6,27.5c-0.1,2.6,1.3,5,3.6,6.3l14.3,7l0.8-8.1l4.4,11.1l0.4,0.2 c4.4,2.1,8.2,3.3,13.1,3.3c1.1,0,2.2-0.1,3.3-0.2c2.8-0.3,5.5-0.9,8-1.8l6.2-2.2L170.9,204.2z"></path> <g> <g> <g> <g> <g> <g> <g> <g> <g> <g> <g> <g> <g> <g> <g> <g> <path class="st21" d="M155.4,186.6c0.7-5.4-6.6-29-5.2-34.2c0.7-2.5,3.1-4.5,4-6.9c0.8-2.3,0.1-4.6-0.9-6.9 c0.9-3.3,1.3-6.7,2.5-9.8c0.8-1.9,3-5.8,5.5-5.8c-0.5,0.1,0.2,0.6,0.3,0.7c1.5,1.4,2.6,2.9,3.6,4.6 c0.6,1,1.4,1.8,2.1,2.5l2.6,79.3l-7.2,2c-3.3,0.9-6.7,1.5-10.1,1.7c-4.8-5.6-6.3-12.8-2.5-18.8 C152.1,192.1,155,189.6,155.4,186.6z"></path> </g> </g> </g> </g> </g> </g> </g> </g> </g> </g> </g> </g> </g> </g> </g> </g> <g> <g> <g> <g> <g> <g> <g> <g> <g> <g> <g> <g> <path class="st22" d="M165.3,305.9h-3.7c-1.7,0-3.3-1.3-4.5-2.8c-1-1.2-2.9-0.5-2.9,1.1v4.1 c0,4.1,3.3,7.5,7.5,7.5h3.7c3.9,0,7.1-3,7.4-6.8v-5.1c0-0.9-1.1-1.2-1.6-0.4C170.3,304.7,168.8,305.9,165.3,305.9 z"></path> </g> </g> </g> </g> </g> </g> </g> </g> </g> </g> </g> </g> <g> <g> <g> <g> <g> <g> <g> <g> <g> <g> <g> <g> <path class="st22" d="M133.6,295.6h-3.3c-1.5,0-4.5-0.7-5.1-2.6c-0.4-1.4-1.6-0.5-1.6,1v3.8c0,3.8,3,6.9,6.7,6.9 h3.3c3.5,0,6.4-2.8,6.7-6.3v-4.7c0-0.8-1-1.1-1.4-0.4C138,294.5,136.7,295.6,133.6,295.6z"></path> </g> </g> </g> </g> </g> </g> </g> </g> </g> </g> </g> </g> <g> <g> <g> <g> <g> <g> <g> <g> <g> <g> <g> <g> <g> <path class="st12" d="M173,179.3c-2.5-0.8-4.7-2.7-5.7-5.4l-14.6-38.8c-1.7-4.6,0.6-9.6,5.2-11.3 c4.6-1.7,9.7,0.6,11.4,5.2l14.6,38.8c1.7,4.6-0.6,9.6-5.2,11.3C176.8,179.8,174.8,179.8,173,179.3z"></path> </g> </g> </g> </g> </g> </g> </g> </g> </g> </g> </g> </g> </g> <path class="st12" d="M219.9,161c-1.1-4.5-5.6-7.2-10.1-6.1l-35.5,8.6c-4.5,1.1-7.2,5.6-6.1,10.1c0.7,2.7,2.6,5,5.3,5.9 c1.5,0.5,3.2,0.6,4.7,0.2l35.5-8.6c2.2-0.5,4-1.9,5.2-3.8C220.1,165.4,220.4,163.2,219.9,161z"></path> <path class="st20" d="M219.5,156.7c0,0,8.5-8.3,9.5-6.6s-2.4,5.2-4.7,7.5"></path> </g> </g> </g> </g> </g> <g> <defs> <path id="SVGID_109_" d="M-955.6,169.6c-11.7,4-21.7,11.4-31.2,18.9c-9.6,7.4-19.3,15.1-30.8,19.6c-9.1,3.6-19,5.1-28.5,7.8 c-9.5,2.7-19.1,6.9-24.9,14.3c-7.4,9.5-7.1,22.8-1,32.8c6,10,16.9,16.9,28.6,20.9s24.4,5.3,36.9,6.3c17.1,1.4,34.6,2.3,51.6-0.8 c17-3.2,33.7-10.8,44-23.7c10.2-12.6,13.2-29,12.1-44.4c-1-13.4-3.1-27.4-11.3-38.3c-7.2-9.6-18.5-14.9-23-15.6 C-940.5,166.2-948.4,167.2-955.6,169.6"></path> </defs> <clipPath id="SVGID_2_"> <use xlink:href="#SVGID_109_" style="overflow:visible;"></use> </clipPath> <g style="clip-path:url(#SVGID_2_);"> <defs> <rect id="SVGID_111_" x="-2323.5" y="-3112.8" width="1440" height="5254"></rect> </defs> <clipPath id="SVGID_3_"> <use xlink:href="#SVGID_111_" style="overflow:visible;"></use> </clipPath> <g style="opacity:0;clip-path:url(#SVGID_3_);"> <g class="st192"> <g> <defs> <rect id="SVGID_113_" x="-4315.6" y="-1651.1" transform="matrix(0.1736 -0.9848 0.9848 0.1736 -846.6202 -1980.608)" width="5424.2" height="2330.5"></rect> </defs> <clipPath id="SVGID_4_"> <use xlink:href="#SVGID_113_" style="overflow:visible;"></use> </clipPath> <g style="clip-path:url(#SVGID_4_);"> <image style="overflow:visible;" width="13489" height="23945" xlink:href="90B6CF09FC906DC1.jpg" transform="matrix(0.24 0 0 0.24 -3222.1521 -3359.2808)"> </image> </g> </g> </g> </g> <g style="opacity:8.770000e-02;clip-path:url(#SVGID_3_);"> <g class="st194"> <g> <defs> <rect id="SVGID_115_" x="-4315.6" y="-1651.1" transform="matrix(0.1736 -0.9848 0.9848 0.1736 -846.6202 -1980.608)" width="5424.2" height="2330.5"></rect> </defs> <clipPath id="SVGID_5_"> <use xlink:href="#SVGID_115_" style="overflow:visible;"></use> </clipPath> <g style="clip-path:url(#SVGID_5_);"> <image style="overflow:visible;" width="13489" height="23945" xlink:href="90B6CF09FC906DC3.jpg" transform="matrix(0.24 0 0 0.24 -3222.1521 -3359.2808)"> </image> </g> </g> </g> </g> </g> </g> </g> <g id="blue-box2"> </g> <g id="woman1-left-upperleg"> </g> <g id="woman1-left-lowerleg"> </g> <g id="woman1-left-foot"> </g> <g id="woman1-right-lowerleg"> </g> <g id="woman1-right-upperlegv"> </g> <g id="woman1-right-foot"> </g> <g id="woman1-back-upperarm"> </g> <g id="woman1-back-forearm"> </g> <g id="woman1"> </g> <g id="woman1-front-forearm"> </g> <g id="woman1-front-upperarm"> </g> <g id="woman1-head"> </g> <g id="man-"> </g> <g id="man-hand"> </g> <g id="man-forearm"> </g> <g id="man-upperarm"> </g> <g id="Isolation_Mode"> </g> <g id="Layer_56"> </g> <g id="Layer_57"> </g> </svg> 