<?xml version="1.0" encoding="UTF-8"?> <!-- Generator: Adobe Illustrator 23.0.1, SVG Export Plug-In . SVG Version: 6.00 Build 0) --> <svg xmlns="http://www.w3.org/2000/svg" xmlns:xlink="http://www.w3.org/1999/xlink" x="0px" y="0px" viewBox="0 0 450.8 404.5" style="enable-background:new 0 0 450.8 404.5;" xml:space="preserve"> <style type="text/css"> .st0{fill:#48B3C1;} .st1{fill:#77E5A9;} .st2{opacity:0.5;fill:#B2E9EE;} .st3{opacity:0.21;fill:#D0D2D3;} .st4{opacity:0.29;fill:url(#SVGID_1_);} .st5{fill:#09B4C3;} .st6{fill:#B2E9EE;} .st7{opacity:0.13;fill:url(#SVGID_2_);} .st8{fill:#F0F0F0;} .st9{fill:#CB976E;} .st10{fill:#084FAB;} .st11{fill:#0D0F36;} .st12{fill:#515D84;} .st13{fill:#715154;} .st14{fill:#D0D0CE;} .st15{fill:#FFC2B0;} .st16{fill:#293160;} .st17{fill:#00418E;} .st18{fill:#FFFFFF;} .st19{fill:#00B8C7;} .st20{fill:#633C25;} .st21{fill:#424D77;} .st22{fill:#BBBBB9;} .st23{opacity:0.13;fill:url(#SVGID_3_);} .st24{fill:#FF8358;} .st25{fill:#A6A6A4;} .st26{fill:#E48767;} .st27{fill:#EEC09B;} .st28{fill:#DCEFFE;} .st29{opacity:0.59;} .st30{fill:#8DC0EF;} .st31{fill:#1A204F;} .st32{fill:#846063;} .st33{opacity:0.13;fill:url(#SVGID_4_);} .st34{fill:#F19177;} .st35{fill:#E7E7E6;} .st36{fill:#CED6E9;} .st37{fill:#1F3598;} .st38{fill:#1E4589;} .st39{fill:#FCD03A;} .st40{fill:none;stroke:#FCD03A;stroke-width:0.2549;stroke-miterlimit:10;} .st41{fill:#99E1E8;} .st42{fill:#66D3DD;} .st43{fill:#19BDCC;} .st44{fill:#15919E;} .st45{fill:#7FDAE3;} .st46{fill:#4CCBD7;} .st47{fill:#19A3B2;} .st48{fill:#117F8A;} .st49{fill:#DEDEDC;} .st50{fill:#D4D4D2;} .st51{fill:#919190;} .st52{fill:#686867;} .st53{fill:#7C7C7B;} .st54{fill:#D0D1CF;} .st55{fill:#FDD039;} .st56{fill:#00B37D;} .st57{fill:#EE3A64;} .st58{fill:#37416D;} .st59{fill:url(#SVGID_5_);} .st60{fill:url(#SVGID_6_);} .st61{fill:#EBC3B4;} .st62{fill:#EAB490;} .st63{fill:#E1AC78;} .st64{fill:#B98E63;} .st65{fill:#D9775E;} .st66{fill:#F8B97D;} .st67{fill:#DF9A6A;} .st68{fill:#42210B;} .st69{fill:#DBA77F;} .st70{opacity:0.24;} .st71{opacity:0.28;clip-path:url(#SVGID_10_);fill-rule:evenodd;clip-rule:evenodd;fill:#B2E9EE;} .st72{opacity:0.48;clip-path:url(#SVGID_10_);fill-rule:evenodd;clip-rule:evenodd;fill:#B2E9EE;} .st73{opacity:0.23;clip-path:url(#SVGID_10_);fill-rule:evenodd;clip-rule:evenodd;fill:#B2E9EE;} .st74{opacity:0.1;} .st75{fill:#191C3C;} .st76{opacity:0.35;fill:#CB976E;} .st77{opacity:0.35;fill:#E9D6B8;} .st78{fill:#0B6AA2;} .st79{opacity:0.4;} .st80{opacity:0.15;fill:#19A3B2;} .st81{opacity:0.8;} .st82{fill:none;} .st83{opacity:0.24;fill:#B2E9EE;} .st84{clip-path:url(#SVGID_12_);} .st85{opacity:0.23;fill-rule:evenodd;clip-rule:evenodd;fill:#B2E9EE;} .st86{clip-path:url(#SVGID_14_);} .st87{fill:#F9F7F9;} .st88{clip-path:url(#SVGID_16_);} .st89{opacity:0.48;fill:#B2E9EE;} .st90{fill:#161711;} .st91{fill:url(#SVGID_17_);} .st92{fill:url(#SVGID_18_);} .st93{fill:#DCFFFF;} .st94{fill:#77422B;} .st95{fill:#563321;} .st96{fill:#2E3191;} .st97{fill:none;stroke:#515D84;stroke-width:3;stroke-miterlimit:10;} .st98{fill:none;stroke:#FCD03A;stroke-width:0.3909;stroke-miterlimit:10;} .st99{fill:#E9D6B8;} .st100{opacity:0.7;fill:#D0D0CE;} .st101{opacity:0.43;} .st102{opacity:0.35;} .st103{filter:url(#Adobe_OpacityMaskFilter);} .st104{mask:url(#SVGID_19_);} .st105{filter:url(#Adobe_OpacityMaskFilter_1_);} .st106{clip-path:url(#SVGID_22_);} .st107{fill:#DB9B20;} .st108{clip-path:url(#SVGID_25_);} .st109{enable-background:new ;} .st110{clip-path:url(#SVGID_27_);enable-background:new ;} .st111{fill:#F9AE1A;} .st112{fill:url(#SVGID_28_);} .st113{fill:url(#SVGID_29_);} .st114{opacity:0.85;fill:#DEDEDC;} .st115{opacity:0.47;fill:#DF9A6A;} .st116{fill:#C98B61;} .st117{fill:#E2C59C;} .st118{fill:#CDD5D7;} .st119{fill:#B7BEC0;} .st120{opacity:0.19;fill:#B2E9EE;} .st121{fill:url(#SVGID_30_);} .st122{fill:url(#SVGID_31_);} .st123{opacity:0.44;} .st124{fill:none;stroke:#99E1E8;stroke-width:1.7712;stroke-linecap:round;stroke-miterlimit:10;} .st125{fill:url(#SVGID_32_);} .st126{fill:url(#SVGID_33_);} .st127{fill:url(#SVGID_34_);} .st128{fill:#F3F4F4;} .st129{opacity:0.55;fill:#D0D0CE;} .st130{fill:#CFD9E8;} .st131{fill:#AEBDDC;} .st132{fill:none;stroke:#BAC2C6;stroke-width:0.1562;stroke-miterlimit:10;} .st133{fill:none;stroke:#BAC2C6;stroke-width:0.1563;stroke-miterlimit:10;} .st134{opacity:0.34;fill:#FFFFFF;} .st135{fill:#C4DFFC;} .st136{opacity:0.56;} .st137{clip-path:url(#SVGID_36_);enable-background:new ;} .st138{clip-path:url(#SVGID_38_);enable-background:new ;} .st139{clip-path:url(#SVGID_40_);enable-background:new ;} .st140{clip-path:url(#SVGID_42_);enable-background:new ;} .st141{clip-path:url(#SVGID_44_);enable-background:new ;} .st142{clip-path:url(#SVGID_46_);enable-background:new ;} .st143{clip-path:url(#SVGID_48_);enable-background:new ;} .st144{clip-path:url(#SVGID_50_);enable-background:new ;} .st145{clip-path:url(#SVGID_52_);enable-background:new ;} .st146{clip-path:url(#SVGID_54_);enable-background:new ;} .st147{clip-path:url(#SVGID_56_);enable-background:new ;} .st148{clip-path:url(#SVGID_58_);enable-background:new ;} .st149{clip-path:url(#SVGID_60_);enable-background:new ;} .st150{clip-path:url(#SVGID_62_);enable-background:new ;} .st151{clip-path:url(#SVGID_64_);enable-background:new ;} .st152{clip-path:url(#SVGID_66_);enable-background:new ;} .st153{clip-path:url(#SVGID_68_);enable-background:new ;} .st154{clip-path:url(#SVGID_70_);enable-background:new ;} .st155{clip-path:url(#SVGID_72_);enable-background:new ;} .st156{clip-path:url(#SVGID_74_);enable-background:new ;} .st157{clip-path:url(#SVGID_76_);enable-background:new ;} .st158{clip-path:url(#SVGID_78_);enable-background:new ;} .st159{clip-path:url(#SVGID_80_);enable-background:new ;} .st160{clip-path:url(#SVGID_82_);enable-background:new ;} .st161{clip-path:url(#SVGID_84_);enable-background:new ;} .st162{clip-path:url(#SVGID_86_);enable-background:new ;} .st163{opacity:0.2;} .st164{clip-path:url(#SVGID_88_);} .st165{fill:#EC6867;} .st166{fill:#EE7D72;} .st167{fill:#F2947D;} .st168{fill:#CB547B;} .st169{opacity:0.38;} .st170{fill:#231F20;} .st171{opacity:0.5;fill:#FFFFFF;} .st172{opacity:0.37;} .st173{opacity:0.49;fill:#E7E7E6;} .st174{fill-rule:evenodd;clip-rule:evenodd;fill:#00B8C7;} .st175{fill-rule:evenodd;clip-rule:evenodd;fill:#15919E;} .st176{fill-rule:evenodd;clip-rule:evenodd;fill:#0D0F36;} .st177{fill-rule:evenodd;clip-rule:evenodd;fill:#424D77;} .st178{opacity:0.13;fill:url(#SVGID_89_);enable-background:new ;} .st179{clip-path:url(#SVGID_91_);} .st180{opacity:0.13;fill:url(#SVGID_92_);enable-background:new ;} .st181{clip-path:url(#SVGID_94_);} .st182{opacity:0.13;fill:url(#SVGID_95_);enable-background:new ;} .st183{clip-path:url(#SVGID_97_);} .st184{opacity:0.13;fill:url(#SVGID_98_);enable-background:new ;} .st185{clip-path:url(#SVGID_100_);} .st186{opacity:0.13;fill:url(#SVGID_101_);enable-background:new ;} .st187{fill:none;stroke:#888889;stroke-width:2.6607;stroke-linecap:round;stroke-miterlimit:10;stroke-dasharray:0.4434,9.7557;} .st188{opacity:0.13;fill:url(#SVGID_106_);enable-background:new ;} .st189{clip-path:url(#SVGID_108_);} .st190{clip-path:url(#SVGID_110_);} .st191{opacity:0;clip-path:url(#SVGID_112_);} .st192{opacity:0;} .st193{opacity:8.770000e-02;clip-path:url(#SVGID_112_);} .st194{opacity:8.770000e-02;} </style> <symbol id="New_Symbol_13" viewBox="-114.8 -241.2 229.6 482.3"> <path class="st0" d="M94.1,159.4c-3.2,17,5.7,32.7,12.8,50.1c2.3,5.6,4.6,11.4,4.4,17.5c-0.3,7.8-7.9,19.1-16.4,12 c-3.1-2.6-4.6-6.7-5.6-10.6c-2.6-10.4-2.1-21.1-6.2-31.2c-8.5-20.9-34.2-28.2-50-44.3c-8.1-8.3-13.6-19.1-15.4-30.6 c-2.5-15.8,1.5-33.1-6-47.3c-9-17.1-30.3-22.4-47.1-31.9C-60.8,28.6-78.1,0.4-79.4-29c-0.6-14.5,2.3-29.6-2.2-43.4 c-3.9-12.3-13.2-22-20-32.9c-21.1-33.9-16.5-81.7,10.7-111c13.5-14.5,32.5-24.6,52.3-24.9c19.9-0.3,40.1,10.4,48.9,28.2 c7.8,15.6,6,33.5,10.1,50.1c4.6,18.9,13.8,25,29,36.3c13.1,9.8,26.7,20.1,34.1,34.7c5.2,10.2,6.9,21.8,7.2,33.2 c0.4,16-1.9,32.1-6.9,47.4c-4.3,13.1-10.6,26.2-9.5,40c1.3,16.5,12.9,30.1,23,43.2s19.9,28.9,16.7,45.1c-2,10.4-9,18.9-14.5,28 C96.8,150,95,154.7,94.1,159.4z"></path> <g> <path class="st1" d="M44.5-53.7C27.1-61.2,13.3-67-3-76.8c-0.6-0.3-3.1-4-2.5-3.7C10.8-70.7,27.6-62.1,45-54.5 C45.6-54.3,45.1-53.4,44.5-53.7z"></path> <path class="st1" d="M78,102.3C64.1,90.2,51.9,78.2,41.5,63c-0.1,0.1-0.2-1.7-0.3-1.7C42,66.1,42.9,71,44,75.9 c6.8,31.1,18.4,61,34.1,88.7c0.3,0.6-0.5,1.1-0.9,0.5c-14.7-25.9-25.8-53.8-32.8-82.8c-3.5-14.4-5.7-29-7.4-43.7 c-1.8-15.8-3.6-31.7-8.2-47C23.5-25.9,17.9-37.6,9-53.6C8.7-36.9-5.7-15.5-19.2,1.7c-0.4,0.5-1.1-0.2-0.7-0.7 C-6.4-16.1,8.3-40.1,7.3-53.6c-0.3-4.9-1.7-5.7-1.4-5.6C1.5-67.1-3-74.8-7.5-82.6c-13.1-22.7-25.4-45.8-32.1-71.1 c-1-3.7-0.8-2.1-0.5-1.8c-0.3-1.3-0.7-2.6-1-3.9c-3.7-16.1-5.4-32.7-5.1-49.3c0.2-8.3,0.9-16.6,2.1-24.8c0.2-1,0.2-6.1,2.4-5.7 c1,0.2,1,1.5,0.2,2c-0.1,0.1-0.4,0.1-0.5,0c-0.1,0-0.1-0.1-0.2-0.1c0,0,0,0-0.1-0.1c-0.5,1.5-1,4.7-1,5c-0.3,2.1-0.6,4.2-0.8,6.2 c-0.4,3.6-0.7,7.3-0.9,11c-0.4,7-0.4,14.1,0,21.1c0.7,13.4,2.8,26.8,6.2,39.8c11.6,10.6,25.8,17.9,41.2,21.1 c0.6,0.1,0.4,1.1-0.3,1c-15-3.2-28.5-8.5-40-18.7c0.2,0.6-0.2-0.6,0,0c7.2,25.8,21.5,51,34.9,74C9.9-54.5,22-34.1,29.5-9.4 c4.1,13.5,6.1,27.4,7.7,41.3c1,8.8,2.1,17.6,3.5,26.4c10.7,16.1,23.5,30.6,38,43.3C79.2,102,78.5,102.8,78,102.3z"></path> <path class="st1" d="M44.2,86.3c-1.3-15.5,1.6-0.3,1.7,0.4c0.7,14.4-3.4,28.3-10.7,40.7c-0.3,0.6-1.2,0.1-0.9-0.5 C41.5,114.6,45.3,100.5,44.2,86.3z"></path> <path class="st1" d="M-65.5-128.8c8.3-24.7,15.3-56,19.1-81.8c0.1-0.6,0.3,7.9,0.2,8.5c-3.8,25.8-10.1,48.9-18.4,73.6 C-64.8-127.9-65.7-128.2-65.5-128.8z"></path> </g> </symbol> <g id="background-element-1"> </g> <g id="background-element-2"> </g> <g id="man"> </g> <g id="man-head"> </g> <g id="woman"> </g> <g id="woman-head"> </g> <g id="woman-hair-front"> </g> <g id="table"> </g> <g id="coffee-steam-3"> </g> <g id="coffee-steam-4"> </g> <g id="man-hand-with-coffee"> </g> <g id="man-arm"> </g> <g id="woman-arm"> </g> <g id="woman-sleeve"> </g> <g id="coffee-steam-1"> </g> <g id="coffee-steam-2"> </g> <g id="woman-hand-with-coffee"> </g> <g id="left-hand"> </g> <g id="left-hand-pointer"> </g> <g id="phone"> </g> <g id="phone-screen"> </g> <g id="gift-shape"> </g> <g id="gift-coffee"> </g> <g id="phone-text-line1"> </g> <g id="phone-text-line2"> </g> <g id="phone-text-line3"> </g> <g id="phone-text-line4"> </g> <g id="phone-button"> </g> <g id="left-hand-pinkie-shadow"> </g> <g id="left-hand-pinkie"> </g> <g id="left-hand-ringfinger-shadow"> </g> <g id="left-hand-ringfinger"> </g> <g id="left-hand-middlefinger-shadow"> </g> <g id="left-hand-middlefinger"> </g> <g id="right-hand-shadow"> </g> <g id="right-hand"> </g> <g id="Layer_1"> <g> <linearGradient id="SVGID_1_" gradientUnits="userSpaceOnUse" x1="66.1163" y1="306.468" x2="375.9823" y2="306.468"> <stop offset="0" style="stop-color:#00B8C7"></stop> <stop offset="1" style="stop-color:#1E4589"></stop> </linearGradient> <path style="opacity:0.13;fill:url(#SVGID_1_);" d="M97.6,272.3c11.1,1.5,21.4,6.4,32.3,8.8c14.8,3.3,30.7,1.8,44.7-4.1 c9.6-4.1,18.5-10.3,28.7-12.6c34.3-7.8,66.7,29.7,101.2,22.4c11.8-2.5,21.9-10,33.2-14.5c11.2-4.5,25.8-5.2,33.7,4 c7.2,8.4,5.3,21.9-1.8,30.4c-7.1,8.5-18,12.8-28.8,15.2c-13.6,3.1-27.7,3.8-41.6,2c-13.3-1.7-26.7-5.6-39.9-3.2 c-24.3,4.4-42.6,29.2-67.3,28.9c-17.5-0.2-31.1-12.8-46.3-19.7c-18.6-8.5-34.7-3.2-53.8-4.6C56.3,322.6,56.9,266.7,97.6,272.3z"></path> <g> <g> <g> <g> <g> <g> <path class="st31" d="M306.9,99.3c-6.4-3.7-14.2,5.2-20.7,1.6c-2.9-1.6-4.6-5.3-7-8.1c-4.7-5.5-12.2-6.8-17.9-3 c-4,2.6-7.2,7.5-11.7,7.9c-6.7,0.5-12.4-9.2-19-6.2c-13.3,6.1-3.3,30.9,4.1,36.8c4.6,3.7,10.8,4.8,15.5,1.2 c1.8-1.4,3.2-3.3,4.9-4.8c10-8.5,14.6,1.7,20.9,9.2c3.4,4.1,8.7,4.8,13.3,3.2c4.6-1.6,8.5-5.1,12.2-8.7 c3.8-3.7,7.6-7.8,9.2-13.5C312.5,109.3,311.2,101.8,306.9,99.3z"></path> </g> </g> </g> <g> <g> <g> <g> <g> <g> <g> <g> <g> <g> <g> <g> <g> <g> <g> <g> <path class="st31" d="M204.9,299.3c-0.6,1.1-1.3,2.2-1.9,3.3c-0.6,1.1-1.3,2.2-1.8,3.5 c-0.7,1.8-2.2,5.3-1.1,7.1c1.6,2.8,4.9,1,6.6-0.7c2.6-2.4,5-5,7.3-7.9c1-1.2,2-2.5,2.4-4.2 c1.4-5-0.1-12.5-5.1-11.4c-1.8,0.4-2.8,1.9-3.5,4C207.1,295.3,206,297.3,204.9,299.3z"></path> </g> </g> </g> </g> </g> </g> </g> </g> </g> </g> </g> </g> </g> </g> </g> </g> <g> <g> <g> <g> <g> <g> <g> <g> <g> <g> <g> <g> <g> <g> <g> <g> <path class="st31" d="M238.4,287.3c-0.2,1-0.5,2.1-0.7,3.1c-0.2,1-0.4,2.1-0.5,3.2c-0.1,1.6-0.2,4.6,1.4,5.5 c2.4,1.4,4.9-1.2,6-3c1.6-2.7,3-5.5,4.2-8.5c0.5-1.3,1-2.6,0.8-3.9c-0.4-4.1-4.4-8.9-8.8-6.2 c-1.6,1-2,2.4-1.9,4.2C239.1,283.6,238.8,285.5,238.4,287.3z"></path> </g> </g> </g> </g> </g> </g> </g> </g> </g> </g> </g> </g> </g> </g> </g> </g> <g> <g> <g> <g> <g> <g> <g> <g> <g> <g> <g> <g> <g> <g> <g> <g> <path class="st34" d="M223.9,215.8l2.3,11.2l21,50.5c0.7,2.3-0.4,4.7-2.4,5.3l-2.6,0.8c-1.9,0.6-3.2-0.9-4-3 l-26.1-49.5l-2.8-7.3C214.3,221.4,219.2,218.8,223.9,215.8z"></path> </g> </g> </g> </g> </g> </g> </g> </g> </g> </g> </g> </g> </g> </g> </g> </g> <g> <g> <g> <g> <g> <g> <g> <g> <g> <g> <g> <g> <g> <g> <g> <g> <path class="st34" d="M202.3,305c0.7-1.6,5.4-11.2,5.7-12.7l15.5-81l1.7-6.6c5.7-0.3,11.4-0.9,17.2-1.6 l-5.6,16.7l-20.4,74.1c-0.8,3.4-6.6,12-8.2,13.1c-0.9,0.6-1.9,1.2-2.8,1.8c-0.8,0.5-1.8,1.1-2.6,0.7 c-0.7-0.3-1.1-1.2-1.1-2C201.6,306.6,201.9,305.8,202.3,305z"></path> </g> </g> </g> </g> </g> </g> </g> </g> </g> </g> </g> </g> </g> </g> </g> </g> <g> <g> <g> <g> <g> <g> <g> <g> <g> <g> <g> <g> <g> <g> <g> <g> <path class="st34" d="M239.3,282.1c0,1.8,0.1,3.6,0.1,5.4c0,0.8,0,1.7,0.4,2.5c0.3,0.8,1,1.4,1.8,1.4 c0.9,0,1.6-0.9,2.1-1.7c0.6-0.9,1.2-1.9,1.8-2.8c1.1-1.7,2.2-3.5,2.2-5.5c-0.1-2.4-1.8-4.4-3.3-6.2 c-0.8-0.9-1.7-1.8-2.8-1.8c-0.7,0-1.4,0.5-1.9,1c-0.8,1-1.3,2.3-1.2,3.6c0.1,1.7,0.9,3.4,1,5.1L239.3,282.1z"></path> </g> </g> </g> </g> </g> </g> </g> </g> </g> </g> </g> </g> </g> </g> </g> </g> <g> <g> <g> <g> <g> <g> <g> <g> <g> <g> <g> <g> <g> <g> <g> <g> <path class="st21" d="M212.4,166.7c-6.9,6.1-7.4,20.2-7.8,28.1c-0.8,16,1,31.9,1.2,47.8 c0,3.1,20.5,5.5,22.6,5.5c11.3,0.1,20.8-5.6,27.2-14.8c0.6-0.9,1.2-1.7,1.4-2.8c0.4-1.7-0.5-3.5-1.3-5.1 c-7.8-16.4-3.5-37.9-12.1-53.3c-3.8-6.9-22-10.6-28.8-7.2C214,165.5,213.1,166.1,212.4,166.7z"></path> </g> </g> </g> </g> </g> </g> </g> </g> </g> </g> </g> </g> </g> </g> </g> </g> <g> <g> <g> <g> <g> <g> <g> <g> <g> <g> <g> <g> <g> <g> <g> <g> <g> <path class="st35" d="M204.8,73.8c0.1,0,0.3,0,0.4,0c3.1,0.1,5.5,2.7,5.4,5.8c-0.7,21.3,3.1,43.2,11,63.2 c1.1,2.9-0.3,6.1-3.1,7.3c-2.9,1.1-6.1-0.3-7.3-3.1c-8.5-21.4-12.6-44.8-11.8-67.7 C199.5,76.3,201.9,73.9,204.8,73.8z"></path> </g> </g> </g> </g> </g> </g> </g> </g> </g> </g> </g> </g> </g> </g> </g> </g> </g> <g> <g> <g> <g> <g> <g> <g> <g> <g> <g> <g> <g> <g> <g> <g> <g> <path class="st35" d="M250.9,137.5c1.2,1.5,3.3,2.7,3.2,4.9c-0.1,2.7-2.3,4.7-4.1,6.8 c-3.4,3.9-6.6,8.8-7.7,13.8c-0.8,3.7,1.1,9.3-2.8,11.3c-3.8,1.9-13.1,2.9-24.2-1.8c-1.7-0.7-3-2.3-3.4-4.3 l-3.5-17.9l-0.1-0.4c-0.5-2.8-0.1-5.7,1.2-8.2l4-7.7v-4.1c0-4.9,4.3-8.4,8.7-7.1l1.5,0.5l2.4,0.8l10.6,3.7 l3.1,1.1l6,2.1c2.8,1,2.7,3,3.9,5.1C250.2,136.6,250.6,137.1,250.9,137.5z"></path> </g> </g> </g> </g> </g> </g> </g> </g> </g> </g> </g> </g> </g> </g> </g> </g> <g> <g> <g> <g> <g> <g> <g> <g> <g> <g> <g> <g> <g> <g> <g> <g> <path class="st34" d="M272.1,78L272.1,78c-1.8,1.2-1.9,3.6-0.2,5c1.5,1.3,3.4,2.1,5.4,2.4 c1.4,0.2,2.9,0,3.8-0.8c0.7-0.6,1-1.4,1.3-2.3c0.5-1.7,0.9-3.5,0.6-5.3c-0.4-2.4-2.1-4.9-5.1-5.7 c-1.3-0.3-2.7-0.2-3.7,0.5C271.2,73.6,274.6,75.7,272.1,78z"></path> </g> </g> </g> </g> </g> </g> </g> </g> </g> </g> </g> </g> </g> </g> </g> </g> <g> <g> <g> <g> <g> <g> <g> <g> <g> <g> <g> <g> <g> <g> <g> <g> <path class="st36" d="M205.2,147.3l0.1,0.3c0,0-0.1,0-0.1,0C205.2,147.5,205.2,147.4,205.2,147.3z"></path> </g> </g> </g> </g> </g> </g> </g> </g> </g> </g> </g> </g> </g> </g> </g> </g> <g> <g> <g> <g> <g> <g> <g> <g> <g> <g> <g> <g> <g> <g> <g> <g> <g> <path class="st35" d="M277.6,77.8c-0.1,0-0.2-0.1-0.4-0.1c-3-0.7-6,1.2-6.7,4.2 c-4.9,20.8-14.3,40.9-27.2,58.1c-1.9,2.5-1.3,6,1.1,7.8c2.5,1.9,6,1.3,7.8-1.1c13.8-18.4,23.9-39.9,29.1-62.2 C282.1,81.6,280.4,78.7,277.6,77.8z"></path> </g> </g> </g> </g> </g> </g> </g> </g> </g> </g> </g> </g> </g> </g> </g> </g> </g> <g> <g> <g> <g> <g> <g> <g> <g> <g> <g> <g> <g> <g> <g> <g> <g> <path class="st34" d="M210.1,75.4L210.1,75.4c1.4,1.6,1,3.9-1,4.9c-1.7,0.9-3.8,1.2-5.8,1 c-1.4-0.2-2.8-0.7-3.5-1.7c-0.5-0.7-0.6-1.6-0.7-2.5c-0.1-1.8,0-3.6,0.7-5.3c1-2.3,3.2-4.2,6.3-4.2 c1.3,0,2.6,0.5,3.5,1.4C212.1,71.3,208.3,72.5,210.1,75.4z"></path> </g> </g> </g> </g> </g> </g> </g> </g> </g> </g> </g> </g> </g> </g> </g> </g> <g> <g> <g> <g> <g> <g> <g> <g> <g> <g> <g> <g> <g> <g> <g> <g> <path class="st31" d="M240,117.9c1.7-0.9,3.3-2.4,4.5-4.5c5.1-8.9,0-24.6-10.3-27c-11.3-2.6-21,8.7-18,19.5 C218.5,114.5,231.7,122.3,240,117.9z"></path> </g> </g> </g> </g> </g> </g> </g> </g> </g> </g> </g> </g> </g> </g> </g> </g> <g> <g> <g> <g> <g> <g> <g> <g> <g> <g> <g> <g> <g> <g> <g> <g> <path class="st37" d="M224,114C224,114,224,114,224,114c0.1,0,0.1-0.1,0.1-0.2C224.1,113.8,224,113.9,224,114z "></path> </g> </g> </g> </g> </g> </g> </g> </g> </g> </g> </g> </g> </g> </g> </g> </g> <g> <g> <g> <g> <g> <g> <g> <g> <g> <g> <g> <g> <g> <g> <g> <g> <path class="st8" d="M249.7,138.5l-2.1,8c-1.1,1.3-2.1,2.6-3.2,4c-2.3,2.8-4.6,5.6-7.7,7.1 c-5.2,2.4-11.2,0.4-16.5-1.8c-3.3-1.4-6.5-2.8-9.7-4.4c-0.6-0.3-1.3-0.6-1.9-1l-0.1-0.4 c-0.5-2.8-0.1-5.7,1.2-8.2l4-7.7v-4.1c0-4.9,4.3-8.4,8.7-7.1l1.5,0.5l2.4,0.8l10.6,3.7l3.1,1.1l6,2.1 C248.9,132,250.5,135.3,249.7,138.5z"></path> </g> </g> </g> </g> </g> </g> </g> </g> </g> </g> </g> </g> </g> </g> </g> </g> <g> <g> <g> <g> <g> <g> <g> <g> <g> <g> <g> <g> <g> <g> <g> <g> <path class="st34" d="M240,129c-1.5,2.5-3.6,4.6-5.7,6.5c-1.6,1.5-3.4,2.8-5.5,3.5c-2.1,0.7-4.5,0.5-6.2-0.8 c-1.4-1.1-2-2.9-2.1-4.7c-0.1-1.8,0.4-3.5,1-5.1c0.6-1.7,1.4-3.4,2.4-5l2.4,0.8l10.6,3.7L240,129z"></path> </g> </g> </g> </g> </g> </g> </g> </g> </g> </g> </g> </g> </g> </g> </g> </g> <g> <g> <g> <g> <g> <g> <g> <g> <g> <g> <g> <g> <g> <g> <g> <g> <rect x="224.1" y="111.7" class="st34" width="11" height="17.1"></rect> </g> </g> </g> </g> </g> </g> </g> </g> </g> </g> </g> </g> </g> </g> </g> </g> <g> <g> <g> <g> <g> <g> <g> <g> <g> <g> <g> <g> <g> <g> <g> <g> <polygon class="st34" points="232.9,118.7 224.1,125.3 224.1,125.2 224.1,118.1 "></polygon> </g> </g> </g> </g> </g> </g> </g> </g> </g> </g> </g> </g> </g> </g> </g> </g> <g> <g> <g> <g> <g> <g> <g> <g> <g> <g> <g> <g> <g> <g> <g> <g> <path class="st37" d="M234.6,106.4C234.6,106.4,234.6,106.4,234.6,106.4c0.1,0,0.1-0.1,0.1-0.2 C234.6,106.2,234.6,106.3,234.6,106.4z"></path> </g> </g> </g> </g> </g> </g> </g> </g> </g> </g> </g> </g> </g> </g> </g> </g> <g> <g> <g> <g> <g> <g> <g> <g> <g> <g> <g> <g> <g> <g> <g> <g> <path class="st34" d="M235,109.7c-1.4-7-5.9-14.4-13.5-15.7c-0.7-0.1-0.8-0.7-0.6-1.2c-0.1-0.3-0.1-0.7,0.1-1 c-0.1,0-0.1,0-0.2,0c-1.5-0.2-3-0.2-4.3,0.5c-0.9,0.5-1.5,1.4-1.8,2.5c-0.1,0.4-0.1,0.8,0,1.1 c-0.1,2.9-0.2,5.8-0.3,8.7c0,1.3-0.1,2.6,0,4c0.1,3.2,0.6,6.3,2.5,8.7c2,2.6,5.3,3.6,8.3,3.7 c1.7,0,3.4-1.2,5-2.1c2.8-1.7,4.2-4.5,4.9-8c0-0.2,0.1-0.5,0.1-0.7C235.1,110,235,109.8,235,109.7z"></path> </g> </g> </g> </g> </g> </g> </g> </g> </g> </g> </g> </g> </g> </g> </g> </g> <g> <g> <g> <g> <g> <g> <g> <g> <g> <g> <g> <g> <g> <g> <g> <g> <g> <path class="st24" d="M233.7,110.2c0.2,0.2,0.5,0.2,0.8,0.1c0-0.1,0-0.2,0.1-0.3L233.7,110.2z"></path> </g> </g> </g> </g> </g> </g> </g> </g> </g> </g> </g> </g> </g> </g> </g> </g> <g> <g> <g> <g> <g> <g> <g> <g> <g> <g> <g> <g> <g> <g> <g> <g> <path class="st34" d="M239.1,104.7c-1.2-0.4-2.4,0.9-2.9,2.5c-0.3,0.8-0.4,1.6-0.8,2.3 c-0.2,0.4-0.5,0.7-0.9,0.8c-0.3,1.2,0.4,2.7,1.3,3c1,0.3,2.1-0.3,2.9-1.2c0.9-0.9,1.7-2.2,1.9-3.7 C240.8,106.9,240.2,105.1,239.1,104.7z"></path> </g> </g> </g> </g> </g> </g> </g> </g> </g> </g> </g> </g> </g> </g> </g> </g> </g> <g> <g> <g> <g> <g> <g> <g> <g> <g> <g> <g> <g> <g> <g> <g> <g> <path class="st31" d="M229.9,91.5c1.9,3.9-0.9,10.7-8,12.1c-13.7,2.8-12-10.6-1.5-14.2 C225.6,87.6,228.7,89,229.9,91.5z"></path> </g> </g> </g> </g> </g> </g> </g> </g> </g> </g> </g> </g> </g> </g> </g> </g> <polygon class="st21" points="242.9,129.9 239.3,128.7 221.9,145.2 224,146.6 "></polygon> <path class="st38" d="M223.1,123L223.1,123l0.9,23.4c0,0.1,0,0.1-0.1,0.1l-2.9-1.4l-0.8-22.6l0,0 C221.3,122.5,221.9,122.6,223.1,123L223.1,123z"></path> <g> <circle class="st39" cx="220.5" cy="151.1" r="5.8"></circle> <circle class="st40" cx="220.5" cy="151.1" r="4.5"></circle> </g> </g> </g> <g> <path class="st6" d="M179.5,175.8c2.2,0.4,4.7,0.1,6-1.3c0.7-0.7,1.6,0.5,0.9,1.1c-1.8,1.8-4.7,2.3-7.2,1.6 c-0.3-0.1-0.7-0.3-0.6-0.9C178.8,175.8,179.3,175.7,179.5,175.8z"></path> <path class="st6" d="M286.3,158.1c0.1,2.2,1.2,4.6,2.8,5.5c0.8,0.5,0,1.7-0.8,1.2c-2.2-1.3-3.4-3.9-3.4-6.6 c0-0.3,0.1-0.7,0.7-0.8C286,157.4,286.3,157.9,286.3,158.1z"></path> <path class="st6" d="M160.6,140.8c0.1,2.2,1.2,4.6,2.8,5.5c0.8,0.5,0,1.7-0.8,1.2c-2.2-1.3-3.4-3.9-3.4-6.6 c0-0.3,0.1-0.7,0.7-0.8C160.3,140.1,160.5,140.6,160.6,140.8z"></path> <path class="st6" d="M238.2,76.7c1.6-1.6,2.6-3.9,2.3-5.7c-0.2-0.9,1.3-1.1,1.5-0.2c0.5,2.5-0.7,5.2-2.6,6.9 c-0.2,0.2-0.6,0.4-1,0C237.8,77.4,238.1,76.9,238.2,76.7z"></path> <path class="st6" d="M167.5,89.9c1.6,1.6,3.9,2.6,5.7,2.2c0.9-0.2,1.1,1.2,0.2,1.4c-2.5,0.6-5.2-0.6-7-2.5c-0.2-0.2-0.4-0.6,0-1 C166.9,89.5,167.4,89.8,167.5,89.9z"></path> <path class="st6" d="M182.9,118.2c1.6-1.6,2.6-3.9,2.3-5.7c-0.2-0.9,1.3-1.1,1.5-0.2c0.5,2.5-0.7,5.2-2.6,6.9 c-0.2,0.2-0.6,0.4-1,0C182.5,118.8,182.7,118.3,182.9,118.2z"></path> <path class="st6" d="M180.8,221.3c1.6-1.6,2.6-3.9,2.3-5.7c-0.2-0.9,1.3-1.1,1.5-0.2c0.5,2.5-0.7,5.2-2.6,6.9 c-0.2,0.2-0.6,0.4-1,0C180.5,221.9,180.7,221.4,180.8,221.3z"></path> <path class="st6" d="M189.2,144.8c1,2,2.9,3.7,4.7,3.9c0.9,0.1,0.6,1.5-0.3,1.4c-2.6-0.3-4.7-2.2-5.8-4.6 c-0.1-0.3-0.2-0.7,0.3-1C188.7,144.3,189.2,144.7,189.2,144.8z"></path> <path class="st6" d="M274.9,213.4c1,2,2.9,3.7,4.7,3.9c0.9,0.1,0.6,1.5-0.3,1.4c-2.6-0.3-4.7-2.2-5.8-4.6 c-0.1-0.3-0.2-0.7,0.3-1C274.4,212.8,274.9,213.2,274.9,213.4z"></path> <path class="st6" d="M258.5,151.4c2.1-0.7,4.1-2.3,4.6-4.1c0.2-0.9,1.6-0.4,1.4,0.5c-0.7,2.5-3,4.3-5.5,5 c-0.3,0.1-0.7,0.1-0.9-0.5C257.9,151.8,258.3,151.5,258.5,151.4z"></path> <path class="st6" d="M164.2,199.8c2.1-0.7,4.1-2.3,4.6-4.1c0.2-0.9,1.6-0.4,1.4,0.5c-0.7,2.5-3,4.3-5.5,5 c-0.3,0.1-0.7,0.1-0.9-0.5C163.5,200.2,164,199.9,164.2,199.8z"></path> <path class="st6" d="M264.5,177.4c2.1,0.6,4.7,0.4,6.1-0.8c0.7-0.6,1.6,0.6,0.9,1.2c-1.9,1.7-4.8,1.9-7.3,1.1 c-0.3-0.1-0.7-0.3-0.5-0.9C263.7,177.4,264.3,177.3,264.5,177.4z"></path> <path class="st6" d="M264.7,243.7c2.1,0.6,4.7,0.4,6.1-0.8c0.7-0.6,1.6,0.6,0.9,1.2c-1.9,1.7-4.8,1.9-7.3,1.1 c-0.3-0.1-0.7-0.3-0.5-0.9C264,243.7,264.5,243.7,264.7,243.7z"></path> <path class="st6" d="M289,88.2c2.2,0.3,4.7-0.3,5.9-1.7c0.6-0.7,1.6,0.3,1,1.1c-1.7,2-4.5,2.6-7.1,2.1c-0.3,0-0.7-0.2-0.6-0.8 C288.2,88.3,288.8,88.1,289,88.2z"></path> <path class="st6" d="M217.9,60.8c2.2,0.3,4.7-0.3,5.9-1.7c0.6-0.7,1.6,0.3,1,1.1c-1.7,2-4.5,2.6-7.1,2.1c-0.3,0-0.7-0.2-0.6-0.8 C217.1,60.9,217.7,60.8,217.9,60.8z"></path> </g> </g> </g> </g> <g id="blue-box2"> </g> <g id="woman1-left-upperleg"> </g> <g id="woman1-left-lowerleg"> </g> <g id="woman1-left-foot"> </g> <g id="woman1-right-lowerleg"> </g> <g id="woman1-right-upperlegv"> </g> <g id="woman1-right-foot"> </g> <g id="woman1-back-upperarm"> </g> <g id="woman1-back-forearm"> </g> <g id="woman1"> </g> <g id="woman1-front-forearm"> </g> <g id="woman1-front-upperarm"> </g> <g id="woman1-head"> </g> <g id="man-"> </g> <g id="man-hand"> </g> <g id="man-forearm"> </g> <g id="man-upperarm"> </g> <g id="Isolation_Mode"> </g> <g id="Layer_56"> </g> <g id="Layer_57"> </g> </svg> 