<?xml version="1.0" encoding="UTF-8"?> <!-- Generator: Adobe Illustrator 23.0.1, SVG Export Plug-In . SVG Version: 6.00 Build 0) --> <svg xmlns="http://www.w3.org/2000/svg" xmlns:xlink="http://www.w3.org/1999/xlink" x="0px" y="0px" viewBox="0 0 450.8 404.5" style="enable-background:new 0 0 450.8 404.5;" xml:space="preserve"> <style type="text/css"> .st0{fill:#48B3C1;} .st1{fill:#77E5A9;} .st2{opacity:0.5;fill:#B2E9EE;} .st3{opacity:0.21;fill:#D0D2D3;} .st4{opacity:0.29;fill:url(#SVGID_1_);} .st5{fill:#09B4C3;} .st6{fill:#B2E9EE;} .st7{opacity:0.13;fill:url(#SVGID_2_);} .st8{fill:#F0F0F0;} .st9{fill:#CB976E;} .st10{fill:#084FAB;} .st11{fill:#0D0F36;} .st12{fill:#515D84;} .st13{fill:#715154;} .st14{fill:#D0D0CE;} .st15{fill:#FFC2B0;} .st16{fill:#293160;} .st17{fill:#00418E;} .st18{fill:#FFFFFF;} .st19{fill:#00B8C7;} .st20{fill:#633C25;} .st21{fill:#424D77;} .st22{fill:#BBBBB9;} .st23{opacity:0.13;fill:url(#SVGID_3_);} .st24{fill:#FF8358;} .st25{fill:#A6A6A4;} .st26{fill:#E48767;} .st27{fill:#EEC09B;} .st28{fill:#DCEFFE;} .st29{opacity:0.59;} .st30{fill:#8DC0EF;} .st31{fill:#1A204F;} .st32{fill:#846063;} .st33{opacity:0.13;fill:url(#SVGID_4_);} .st34{fill:#F19177;} .st35{fill:#E7E7E6;} .st36{fill:#CED6E9;} .st37{fill:#1F3598;} .st38{fill:#1E4589;} .st39{fill:#FCD03A;} .st40{fill:none;stroke:#FCD03A;stroke-width:0.2549;stroke-miterlimit:10;} .st41{fill:#99E1E8;} .st42{fill:#66D3DD;} .st43{fill:#19BDCC;} .st44{fill:#15919E;} .st45{fill:#7FDAE3;} .st46{fill:#4CCBD7;} .st47{fill:#19A3B2;} .st48{fill:#117F8A;} .st49{fill:#DEDEDC;} .st50{fill:#D4D4D2;} .st51{fill:#919190;} .st52{fill:#686867;} .st53{fill:#7C7C7B;} .st54{fill:#D0D1CF;} .st55{fill:#FDD039;} .st56{fill:#00B37D;} .st57{fill:#EE3A64;} .st58{fill:#37416D;} .st59{fill:url(#SVGID_5_);} .st60{fill:url(#SVGID_6_);} .st61{fill:#EBC3B4;} .st62{fill:#EAB490;} .st63{fill:#E1AC78;} .st64{fill:#B98E63;} .st65{fill:#D9775E;} .st66{fill:#F8B97D;} .st67{fill:#DF9A6A;} .st68{fill:#42210B;} .st69{fill:#DBA77F;} .st70{opacity:0.24;} .st71{opacity:0.28;clip-path:url(#SVGID_10_);fill-rule:evenodd;clip-rule:evenodd;fill:#B2E9EE;} .st72{opacity:0.48;clip-path:url(#SVGID_10_);fill-rule:evenodd;clip-rule:evenodd;fill:#B2E9EE;} .st73{opacity:0.23;clip-path:url(#SVGID_10_);fill-rule:evenodd;clip-rule:evenodd;fill:#B2E9EE;} .st74{opacity:0.1;} .st75{fill:#191C3C;} .st76{opacity:0.35;fill:#CB976E;} .st77{opacity:0.35;fill:#E9D6B8;} .st78{fill:#0B6AA2;} .st79{opacity:0.4;} .st80{opacity:0.15;fill:#19A3B2;} .st81{opacity:0.8;} .st82{fill:none;} .st83{opacity:0.24;fill:#B2E9EE;} .st84{clip-path:url(#SVGID_12_);} .st85{opacity:0.23;fill-rule:evenodd;clip-rule:evenodd;fill:#B2E9EE;} .st86{clip-path:url(#SVGID_14_);} .st87{fill:#F9F7F9;} .st88{clip-path:url(#SVGID_16_);} .st89{opacity:0.48;fill:#B2E9EE;} .st90{fill:#161711;} .st91{fill:url(#SVGID_17_);} .st92{fill:url(#SVGID_18_);} .st93{fill:#DCFFFF;} .st94{fill:#77422B;} .st95{fill:#563321;} .st96{fill:#2E3191;} .st97{fill:none;stroke:#515D84;stroke-width:3;stroke-miterlimit:10;} .st98{fill:none;stroke:#FCD03A;stroke-width:0.3909;stroke-miterlimit:10;} .st99{fill:#E9D6B8;} .st100{opacity:0.7;fill:#D0D0CE;} .st101{opacity:0.43;} .st102{opacity:0.35;} .st103{filter:url(#Adobe_OpacityMaskFilter);} .st104{mask:url(#SVGID_19_);} .st105{filter:url(#Adobe_OpacityMaskFilter_1_);} .st106{clip-path:url(#SVGID_22_);} .st107{fill:#DB9B20;} .st108{clip-path:url(#SVGID_25_);} .st109{enable-background:new ;} .st110{clip-path:url(#SVGID_27_);enable-background:new ;} .st111{fill:#F9AE1A;} .st112{fill:url(#SVGID_28_);} .st113{fill:url(#SVGID_29_);} .st114{opacity:0.85;fill:#DEDEDC;} .st115{opacity:0.47;fill:#DF9A6A;} .st116{fill:#C98B61;} .st117{fill:#E2C59C;} .st118{fill:#CDD5D7;} .st119{fill:#B7BEC0;} .st120{opacity:0.19;fill:#B2E9EE;} .st121{fill:url(#SVGID_30_);} .st122{fill:url(#SVGID_31_);} .st123{opacity:0.44;} .st124{fill:none;stroke:#99E1E8;stroke-width:1.7712;stroke-linecap:round;stroke-miterlimit:10;} .st125{fill:url(#SVGID_32_);} .st126{fill:url(#SVGID_33_);} .st127{fill:url(#SVGID_34_);} .st128{fill:#F3F4F4;} .st129{opacity:0.55;fill:#D0D0CE;} .st130{fill:#CFD9E8;} .st131{fill:#AEBDDC;} .st132{fill:none;stroke:#BAC2C6;stroke-width:0.1562;stroke-miterlimit:10;} .st133{fill:none;stroke:#BAC2C6;stroke-width:0.1563;stroke-miterlimit:10;} .st134{opacity:0.34;fill:#FFFFFF;} .st135{fill:#C4DFFC;} .st136{opacity:0.56;} .st137{clip-path:url(#SVGID_36_);enable-background:new ;} .st138{clip-path:url(#SVGID_38_);enable-background:new ;} .st139{clip-path:url(#SVGID_40_);enable-background:new ;} .st140{clip-path:url(#SVGID_42_);enable-background:new ;} .st141{clip-path:url(#SVGID_44_);enable-background:new ;} .st142{clip-path:url(#SVGID_46_);enable-background:new ;} .st143{clip-path:url(#SVGID_48_);enable-background:new ;} .st144{clip-path:url(#SVGID_50_);enable-background:new ;} .st145{clip-path:url(#SVGID_52_);enable-background:new ;} .st146{clip-path:url(#SVGID_54_);enable-background:new ;} .st147{clip-path:url(#SVGID_56_);enable-background:new ;} .st148{clip-path:url(#SVGID_58_);enable-background:new ;} .st149{clip-path:url(#SVGID_60_);enable-background:new ;} .st150{clip-path:url(#SVGID_62_);enable-background:new ;} .st151{clip-path:url(#SVGID_64_);enable-background:new ;} .st152{clip-path:url(#SVGID_66_);enable-background:new ;} .st153{clip-path:url(#SVGID_68_);enable-background:new ;} .st154{clip-path:url(#SVGID_70_);enable-background:new ;} .st155{clip-path:url(#SVGID_72_);enable-background:new ;} .st156{clip-path:url(#SVGID_74_);enable-background:new ;} .st157{clip-path:url(#SVGID_76_);enable-background:new ;} .st158{clip-path:url(#SVGID_78_);enable-background:new ;} .st159{clip-path:url(#SVGID_80_);enable-background:new ;} .st160{clip-path:url(#SVGID_82_);enable-background:new ;} .st161{clip-path:url(#SVGID_84_);enable-background:new ;} .st162{clip-path:url(#SVGID_86_);enable-background:new ;} .st163{opacity:0.2;} .st164{clip-path:url(#SVGID_88_);} .st165{fill:#EC6867;} .st166{fill:#EE7D72;} .st167{fill:#F2947D;} .st168{fill:#CB547B;} .st169{opacity:0.38;} .st170{fill:#231F20;} .st171{opacity:0.5;fill:#FFFFFF;} .st172{opacity:0.37;} .st173{opacity:0.49;fill:#E7E7E6;} .st174{fill-rule:evenodd;clip-rule:evenodd;fill:#00B8C7;} .st175{fill-rule:evenodd;clip-rule:evenodd;fill:#15919E;} .st176{fill-rule:evenodd;clip-rule:evenodd;fill:#0D0F36;} .st177{fill-rule:evenodd;clip-rule:evenodd;fill:#424D77;} .st178{opacity:0.13;fill:url(#SVGID_89_);enable-background:new ;} .st179{clip-path:url(#SVGID_91_);} .st180{opacity:0.13;fill:url(#SVGID_92_);enable-background:new ;} .st181{clip-path:url(#SVGID_94_);} .st182{opacity:0.13;fill:url(#SVGID_95_);enable-background:new ;} .st183{clip-path:url(#SVGID_97_);} .st184{opacity:0.13;fill:url(#SVGID_98_);enable-background:new ;} .st185{clip-path:url(#SVGID_100_);} .st186{opacity:0.13;fill:url(#SVGID_101_);enable-background:new ;} .st187{fill:none;stroke:#888889;stroke-width:2.6607;stroke-linecap:round;stroke-miterlimit:10;stroke-dasharray:0.4434,9.7557;} .st188{opacity:0.13;fill:url(#SVGID_106_);enable-background:new ;} .st189{clip-path:url(#SVGID_108_);} .st190{clip-path:url(#SVGID_110_);} .st191{opacity:0;clip-path:url(#SVGID_112_);} .st192{opacity:0;} .st193{opacity:8.770000e-02;clip-path:url(#SVGID_112_);} .st194{opacity:8.770000e-02;} </style> <symbol id="New_Symbol_13" viewBox="-114.8 -241.2 229.6 482.3"> <path class="st0" d="M94.1,159.4c-3.2,17,5.7,32.7,12.8,50.1c2.3,5.6,4.6,11.4,4.4,17.5c-0.3,7.8-7.9,19.1-16.4,12 c-3.1-2.6-4.6-6.7-5.6-10.6c-2.6-10.4-2.1-21.1-6.2-31.2c-8.5-20.9-34.2-28.2-50-44.3c-8.1-8.3-13.6-19.1-15.4-30.6 c-2.5-15.8,1.5-33.1-6-47.3c-9-17.1-30.3-22.4-47.1-31.9C-60.8,28.6-78.1,0.4-79.4-29c-0.6-14.5,2.3-29.6-2.2-43.4 c-3.9-12.3-13.2-22-20-32.9c-21.1-33.9-16.5-81.7,10.7-111c13.5-14.5,32.5-24.6,52.3-24.9c19.9-0.3,40.1,10.4,48.9,28.2 c7.8,15.6,6,33.5,10.1,50.1c4.6,18.9,13.8,25,29,36.3c13.1,9.8,26.7,20.1,34.1,34.7c5.2,10.2,6.9,21.8,7.2,33.2 c0.4,16-1.9,32.1-6.9,47.4c-4.3,13.1-10.6,26.2-9.5,40c1.3,16.5,12.9,30.1,23,43.2s19.9,28.9,16.7,45.1c-2,10.4-9,18.9-14.5,28 C96.8,150,95,154.7,94.1,159.4z"></path> <g> <path class="st1" d="M44.5-53.7C27.1-61.2,13.3-67-3-76.8c-0.6-0.3-3.1-4-2.5-3.7C10.8-70.7,27.6-62.1,45-54.5 C45.6-54.3,45.1-53.4,44.5-53.7z"></path> <path class="st1" d="M78,102.3C64.1,90.2,51.9,78.2,41.5,63c-0.1,0.1-0.2-1.7-0.3-1.7C42,66.1,42.9,71,44,75.9 c6.8,31.1,18.4,61,34.1,88.7c0.3,0.6-0.5,1.1-0.9,0.5c-14.7-25.9-25.8-53.8-32.8-82.8c-3.5-14.4-5.7-29-7.4-43.7 c-1.8-15.8-3.6-31.7-8.2-47C23.5-25.9,17.9-37.6,9-53.6C8.7-36.9-5.7-15.5-19.2,1.7c-0.4,0.5-1.1-0.2-0.7-0.7 C-6.4-16.1,8.3-40.1,7.3-53.6c-0.3-4.9-1.7-5.7-1.4-5.6C1.5-67.1-3-74.8-7.5-82.6c-13.1-22.7-25.4-45.8-32.1-71.1 c-1-3.7-0.8-2.1-0.5-1.8c-0.3-1.3-0.7-2.6-1-3.9c-3.7-16.1-5.4-32.7-5.1-49.3c0.2-8.3,0.9-16.6,2.1-24.8c0.2-1,0.2-6.1,2.4-5.7 c1,0.2,1,1.5,0.2,2c-0.1,0.1-0.4,0.1-0.5,0c-0.1,0-0.1-0.1-0.2-0.1c0,0,0,0-0.1-0.1c-0.5,1.5-1,4.7-1,5c-0.3,2.1-0.6,4.2-0.8,6.2 c-0.4,3.6-0.7,7.3-0.9,11c-0.4,7-0.4,14.1,0,21.1c0.7,13.4,2.8,26.8,6.2,39.8c11.6,10.6,25.8,17.9,41.2,21.1 c0.6,0.1,0.4,1.1-0.3,1c-15-3.2-28.5-8.5-40-18.7c0.2,0.6-0.2-0.6,0,0c7.2,25.8,21.5,51,34.9,74C9.9-54.5,22-34.1,29.5-9.4 c4.1,13.5,6.1,27.4,7.7,41.3c1,8.8,2.1,17.6,3.5,26.4c10.7,16.1,23.5,30.6,38,43.3C79.2,102,78.5,102.8,78,102.3z"></path> <path class="st1" d="M44.2,86.3c-1.3-15.5,1.6-0.3,1.7,0.4c0.7,14.4-3.4,28.3-10.7,40.7c-0.3,0.6-1.2,0.1-0.9-0.5 C41.5,114.6,45.3,100.5,44.2,86.3z"></path> <path class="st1" d="M-65.5-128.8c8.3-24.7,15.3-56,19.1-81.8c0.1-0.6,0.3,7.9,0.2,8.5c-3.8,25.8-10.1,48.9-18.4,73.6 C-64.8-127.9-65.7-128.2-65.5-128.8z"></path> </g> </symbol> <g id="background-element-1"> </g> <g id="background-element-2"> </g> <g id="man"> </g> <g id="man-head"> </g> <g id="woman"> </g> <g id="woman-head"> </g> <g id="woman-hair-front"> </g> <g id="table"> </g> <g id="coffee-steam-3"> </g> <g id="coffee-steam-4"> </g> <g id="man-hand-with-coffee"> </g> <g id="man-arm"> </g> <g id="woman-arm"> </g> <g id="woman-sleeve"> </g> <g id="coffee-steam-1"> </g> <g id="coffee-steam-2"> </g> <g id="woman-hand-with-coffee"> </g> <g id="left-hand"> </g> <g id="left-hand-pointer"> </g> <g id="phone"> </g> <g id="phone-screen"> </g> <g id="gift-shape"> </g> <g id="gift-coffee"> </g> <g id="phone-text-line1"> </g> <g id="phone-text-line2"> </g> <g id="phone-text-line3"> </g> <g id="phone-text-line4"> </g> <g id="phone-button"> </g> <g id="left-hand-pinkie-shadow"> </g> <g id="left-hand-pinkie"> </g> <g id="left-hand-ringfinger-shadow"> </g> <g id="left-hand-ringfinger"> </g> <g id="left-hand-middlefinger-shadow"> </g> <g id="left-hand-middlefinger"> </g> <g id="right-hand-shadow"> </g> <g id="right-hand"> </g> <g id="Layer_1"> <g> <linearGradient id="SVGID_1_" gradientUnits="userSpaceOnUse" x1="42.461" y1="304.3159" x2="383.6677" y2="304.3159"> <stop offset="0" style="stop-color:#00B8C7"></stop> <stop offset="1" style="stop-color:#1E4589"></stop> </linearGradient> <path style="opacity:0.13;fill:url(#SVGID_1_);" d="M279.1,264.8c-9.4,2.2-18.8,4.9-28.4,6c-22.3,2.6-44.6-2.9-66.8-6.2 c-41.3-6.1-102.3-5.6-131.7,28.6c-3,3.5-5.8,7.2-7.6,11.4c-3.2,7.6-2.9,16.6,1,23.9c13.7,25.9,63.7,19.7,86.4,12.9 c15-4.5,29-11.8,43.9-16.6c21.4-6.9,44.4-8.5,66.5-4.7c21.6,3.7,42,12.4,63.4,17.1c28.7,6.3,82.1,0.2,77.6-42.2 c-3.9-36-73.2-36.9-99-31.4C282.6,264,280.8,264.4,279.1,264.8z"></path> <g> <g> <g> <g> <g> <g> <g> <g> <g> <g> <g> <g> <g> <g> <g> <g> <g> <g> <polygon class="st24" points="145.8,122.9 157.1,122.9 158.5,114.6 159.5,108.3 148.2,108.3 "></polygon> </g> </g> </g> </g> </g> </g> </g> </g> </g> </g> </g> </g> </g> </g> </g> </g> <g> <g> <g> <g> <g> <g> <g> <g> <g> <g> <g> <g> <g> <g> <g> <g> <polygon class="st24" points="151.1,114.4 156.7,122.9 157.1,122.9 158.5,114.6 "></polygon> </g> </g> </g> </g> </g> </g> </g> </g> </g> </g> </g> </g> </g> </g> </g> </g> <g> <g> <g> <g> <g> <g> <g> <g> <g> <g> <g> <g> <g> <g> <g> <g> <path class="st24" d="M145.3,124.6c1.8,2.6,7.7,1.7,13.4-2.1c-1.6-0.5-3.1-0.8-4.5-1.1c-2.5-0.5-5.8-0.8-9-0.3 C144.6,122.4,144.6,123.7,145.3,124.6z"></path> </g> </g> </g> </g> </g> </g> </g> </g> </g> </g> </g> </g> </g> </g> </g> </g> <g> <g> <g> <g> <g> <g> <g> <g> <g> <g> <g> <g> <g> <g> <g> <g> <path class="st17" d="M139.5,304h1.4c0.8,0,1.4-0.6,1.4-1.4v-7.1c0-0.8-0.6-1.4-1.4-1.4h-1.4 c-0.8,0-1.4,0.6-1.4,1.4v7.1C138.1,303.4,138.8,304,139.5,304z"></path> </g> </g> </g> </g> </g> </g> </g> </g> </g> </g> </g> </g> </g> </g> </g> </g> <g> <g> <g> <g> <g> <g> <g> <g> <g> <g> <g> <g> <g> <g> <g> <g> <g> <g> <g> <path class="st25" d="M135.1,163C135.1,163,135.1,163,135.1,163c-3.3-0.2-5.6-3.4-5-6.6l4.9-28.3 c0.6-3.2,3.6-5.3,6.7-4.7c3.2,0.5,5.3,3.6,4.7,6.7l-1.9,11.2l-1.9,11l0,0C141.6,157.5,141.7,163.4,135.1,163 z"></path> </g> </g> </g> </g> </g> </g> </g> </g> </g> </g> </g> </g> </g> </g> </g> </g> </g> </g> <g> <g> <g> <g> <path class="st26" d="M137.2,255.9l-4.1-53.4l1-12.1l25,3.8l14.4-6.5l4.6,61.1c0.3,3.8,0.1,7.6-0.5,11.3 c-1.9,11.7-6.2,37.4-6.2,37.8c0,0.3-0.7,4.1-0.5,6.5c-3.6,0.2-5.8-0.9-8.5-2.9c0.1-1.1,0.2-2,0.4-2.3c0,0.1,0,0.1,0-0.1 l-0.8-40.7l-7.6-46.6l-1.1,20.4l-1.4,23.7l-3.5,38.5c-2.7,0-6.4-0.1-9-0.2c-0.1-0.1-0.2-0.1-0.3-0.2 c0.1-0.2,0.1-0.5,0.2-0.7L137.2,255.9z"></path> </g> </g> </g> </g> <g> <g> <g> <g> <g> <g> <g> <g> <g> <g> <g> <g> <g> <g> <g> <g> <g> <path class="st17" d="M170.6,308.8c3.5,2.5,2.3,5.3,7.6,3.9c1.7-0.4,4.3-1.4,5.5-2.6c1.2-1.2,1.7-3,0.9-4.4 c-0.8-1.2-2.3-1.8-3.8-2.1c-2.5-0.6-5.1-0.7-7.6-0.4c-1.2,0.1-2.5,0.4-3.4,1.1 C167.8,305.8,169,307.7,170.6,308.8z"></path> </g> </g> </g> </g> </g> </g> </g> </g> </g> </g> </g> </g> </g> </g> </g> </g> <g> <g> <g> <g> <g> <g> <g> <g> <g> <g> <g> <g> <g> <g> <g> <g> <g> <path class="st26" d="M168.9,298.9c0.7,0.2,1.3,0.8,2.4,1.7c2.7,2.2,5.4,4.5,7.2,7.4 c-0.6,1.6-2.4,2.8-4.3,3.4c-1.5-0.4-2.9-1-3.4-1.2c-3-1.4-5.6-3.5-7.4-6.2c-0.2-0.3-0.4-0.8-0.2-1.1 c1-1,2-1.9,3-2.9c3-2.9,7.4,1.2,10.3,2.8c1.1,0.6,2.4,1.4,2.5,2.7c0,1.2-1.1,2.1-2.1,2.6 c-1.1,0.5-2.2,0.8-3.4,0.9L168.9,298.9z"></path> </g> </g> </g> </g> </g> </g> </g> </g> </g> </g> </g> </g> </g> </g> </g> </g> </g> <g> <g> <g> <g> <g> <g> <g> <g> <g> <g> <g> <g> <g> <g> <g> <g> <path class="st17" d="M162.4,313.4h1.4c0.8,0,1.4-0.6,1.4-1.4v-7.1c0-0.8-0.6-1.4-1.4-1.4h-1.4 c-0.8,0-1.4,0.6-1.4,1.4v7.1C161,312.8,161.6,313.4,162.4,313.4z"></path> </g> </g> </g> </g> </g> </g> </g> </g> </g> </g> </g> </g> </g> </g> </g> </g> <g> <g> <g> <g> <g> <g> <g> <g> <g> <g> <g> <g> <g> <g> <g> <g> <path class="st17" d="M161.5,299.5c1.2-0.5,2.6-0.4,4.3,0.6c2.1,1.3,3.6,3.3,5.4,4.9c2.5,2.2,5,3.4,8.1,2 c1,0.6,1.7,1.3,1.7,2.1c0,1.2-2.2,2.7-3.1,3.3c-2.9,2-7.7-1.2-10.1-2.4c-1.9-1-3.9-0.8-5.7-1.6 C159.7,307.3,158.9,301.7,161.5,299.5z"></path> </g> </g> </g> </g> </g> </g> </g> </g> </g> </g> </g> </g> </g> </g> </g> </g> </g> <g> <g> <g> <g> <g> <g> <path class="st11" d="M170.8,168.2c-0.3-0.3-0.6-0.5-0.9-0.7c-3.6-2.2-27.3-0.6-31,1.7c-8,5.1-8.8,21.8-7.6,37.5 c0.8,11.4,2.7,22.3,3.6,28c1.1,6.6,38.7,8.2,42.9,3.5c1-1.1,1.5-2.6,1.9-4c0.6-2.3,0.5-4.7,0.1-7 C176.3,207.7,174.3,187.8,170.8,168.2z"></path> </g> </g> </g> </g> </g> </g> <g> <g> <g> <g> <g> <g> <g> <g> <g> <g> <g> <g> <g> <g> <g> <g> <path class="st14" d="M138.9,163.4c0.1,1.8,0.1,3.5-0.1,5.3c-0.1,0.9,0.4,1.8,1.1,2.3c1.5,1,3.1,1.8,4.8,2.5 c4.8,2,10.2,3.1,15.3,2c0.2,0,0.4-0.1,0.6-0.1c2.9-0.7,9.3-2.5,9.8-6.1c0-0.2,0.1-0.3,0-0.4c0-0.3,0-0.7,0-1 v-16.2c1.6-4.7,4.5-8.1,3-14c-0.7-3-1.9-5.5-3.4-7.6c-2.7-3.7-6.5-6-11.5-7.4c-1.6-0.4-3.1-0.8-4.5-1.1 c-2.5-0.5-5.8-0.8-9-0.3c-3.2,0.4-6.2,1.5-8.1,3.6c-0.2,0.3-0.5,0.6-0.7,0.9c-3.8,5.6-1.8,13.5-0.4,19.7 C137.2,151.2,138.7,157.3,138.9,163.4z"></path> </g> </g> </g> </g> </g> </g> </g> </g> </g> </g> </g> </g> </g> </g> </g> </g> <g> <g> <g> <g> <g> <g> <g> <g> <g> <g> <g> <g> <g> <g> <g> <g> <path class="st11" d="M138.3,168.7c0.2-1.7,0.2-3.5,0.1-5.3l0-0.9l0.8,0.4c7.5,4.1,14.7,7.9,26.7,2.8 c0.4-0.2,0.9-0.3,1.3-0.5c1-0.4,2.1-0.8,3-1.4l0.8-0.5l0,4.4c0,0.4,0,0.7,0,1c0,0.2,0,0.4-0.1,0.5 c-0.6,4-7.3,5.8-10.2,6.5c-1.7,0.4-3.3,0.6-4.9,0.6c-4.3,0-8.3-1.2-11.3-2.5c-1.7-0.7-3.3-1.5-4.8-2.5 C138.7,170.9,138.2,169.8,138.3,168.7z"></path> </g> </g> </g> </g> </g> </g> </g> </g> </g> </g> </g> </g> </g> </g> </g> </g> </g> <g> <g> <g> <g> <g> <g> <g> <g> <g> <g> <g> <g> <g> <g> <g> <g> <g> <path class="st26" d="M155.7,302c0.7-0.9,1.1-2,1.1-3.1c0-1.4-0.8-2.3-1.8-2.9c-0.4-0.3-0.9-0.5-1.3-0.6 c-2.5-1-5.9-3.5-8.9-3.6c-0.3-0.2-0.6-0.3-0.9-0.4l0.2,0.4c-1.3,0.2-2.6,0.9-3.7,2.5c0,0.1-0.1,0.1-0.1,0.2 c2.5,1.4,4.4,0.9,6.6,2.7C149.6,299.6,152.4,303.9,155.7,302z"></path> </g> </g> </g> </g> </g> </g> </g> </g> </g> </g> </g> </g> </g> </g> </g> </g> <g> <g> <g> <g> <g> <g> <g> <g> <g> <g> <g> <g> <g> <g> <g> <g> <path class="st17" d="M160.5,295.8c-0.6-1.2-2.7-1.4-4-1.4c-0.7,0-1.3,0.1-2,0.2c-0.3,0-1,0.4-1.2,0.6 c0.1,0.1,0.2,0.1,0.3,0.2c0.4,0.2,0.5,0.5,0.6,0.7c0.3,0.7-0.1,1.6-0.9,1.9c-0.4,0.1-0.7,0.2-1.1,0.3 c-2.3,0.6-4.6-1.8-6.7-3c-1.4-0.8-1.9-1.4-3.3-2.2c-0.1,0-0.1-0.1-0.2-0.1c-1.3-0.7-2.5-0.5-3.5,0.2 c-0.1,0.1-0.2,0.2-0.2,0.3c-0.1,0.2-0.3,0.5-0.4,0.7c-1.2,2.6-0.4,7,2.8,7c0.7,0,4.3,0.5,4.9,0.8 c5.8,2.9,10.4,4.3,14.2-1.9C160.8,298.4,161.2,297.1,160.5,295.8z"></path> </g> </g> </g> </g> </g> </g> </g> </g> </g> </g> </g> </g> </g> </g> </g> </g> </g> </g> <g> <g> <g> <g> <g> <g> <g> <g> <g> <g> <g> <g> <g> <g> <g> <g> <g> <path class="st26" d="M166.7,104.4c-0.1,3.2-0.6,6.3-2.3,8.7c-1.9,2.6-5,3.6-7.9,3.7c-1.6,0-3.3-0.2-4.7-1.1 c-2.7-1.7-3.9-5.5-4.6-9c-0.2-1.3-0.4-2.7-0.5-4.1c-0.1-1.5,0-3.1,0.4-4.6c0.8-3.2,2.9-5.9,5.4-7.6 c2.5-1.7,5.3-2.4,8.2-2.8c1.4-0.2,2.9-0.2,4.1,0.5c0.8,0.5,1.5,1.4,1.7,2.5c0.1,0.4,0.1,0.8,0,1.1 c0.1,2.9,0.2,5.8,0.3,8.7C166.7,101.7,166.7,103,166.7,104.4z"></path> </g> </g> </g> </g> </g> </g> </g> </g> </g> </g> </g> </g> </g> </g> </g> </g> <g> <g> <g> <g> <g> <g> <g> <g> <g> <g> <g> <g> <g> <g> <g> <g> <path class="st12" d="M164.5,87.2c-8.4-4.9-17.2-4.8-23.4,1.7c-2.4,2.6-4.7,10.4-4.4,14.1 c0.3,3.6,3,6.3,5.7,8.3c3.5,2.5,7.8,4.5,11.8,3.6c0.4,0.1,0.7,0.1,1.1,0.1c0.7-0.6,1.4-1.3,2-2.2 c0.4-0.7,1-1.2,1.7-1.6c0.4-2,0.3-4.2,1.6-5.6c0.5-0.6,1.3-1,2-1.5c1.6-1,3.1-2.1,4.2-3.6 C170.8,95.1,169.3,89.9,164.5,87.2z"></path> </g> </g> </g> </g> </g> </g> </g> </g> </g> </g> </g> </g> </g> </g> </g> </g> <g> <g> <g> <g> <g> <g> <g> <g> <g> <g> <g> <g> <g> <g> <g> <g> <path class="st26" d="M156.9,105.1c-0.1,1.1,0.4,2.1,1,3c0.3,0.6,0.7,1.1,1.2,1.5c0.5,0.4,1.2,0.6,1.8,0.5 c1.9-0.5,1.7-3.5,1.1-5c-0.4-1.1-1.4-2.1-2.5-2.2C158.2,102.7,157,103.6,156.9,105.1z"></path> </g> </g> </g> </g> </g> </g> </g> </g> </g> </g> </g> </g> </g> </g> </g> </g> <g> <g> <g> <g> <g> <g> <g> <g> <g> <g> <g> <g> <g> <g> <g> <g> <path class="st12" d="M142.2,92.5c-2.2,0.8-0.3,3.2-0.8,5.5c-0.4,2.3-3.4,4.7-4.7,6.5c-0.9,1.2-2.3,2-3.6,2.9 c-10.5,7-14.5,22.2-8.8,33.5c1.3,2.6,3.2,5,5.7,6.4c3.7,2,8.3,1.3,12.3-0.1c7.2-2.5,13.9-7.3,17.6-13.9 c3.8-6.7,4.4-15.3,0.7-22c-2.4-4.4-6.7-8.4-6.4-13.5c0.2,0.6,0.5,1.2,0.7,1.9L142.2,92.5z"></path> </g> </g> </g> </g> </g> </g> </g> </g> </g> </g> </g> </g> </g> </g> </g> </g> </g> <g id="XMLID_315_"> <g> <g> <g> <g> <g> <g> <g> <g> <g> <g> <g> <g> <g> <g> <g> <path class="st14" d="M176.9,146.7c1,2,4.4,3.5,8.5,3.5c4,0,7.4-1.5,8.5-3.5l0.3-2.8v-12.1h-0.2 c-0.9-2.1-4.4-3.7-8.6-3.7c-4.2,0-7.7,1.6-8.6,3.7h-0.2v1.1L176.9,146.7z"></path> </g> </g> </g> </g> </g> </g> </g> </g> </g> </g> </g> </g> </g> </g> </g> <g> <g> <g> <g> <g> <g> <g> <g> <g> <g> <g> <g> <g> <g> <g> <path class="st8" d="M194.2,132.3c0,2.7-3.9,4.8-8.8,4.8s-8.8-2.2-8.8-4.8s3.9-4.8,8.8-4.8 S194.2,129.6,194.2,132.3z"></path> </g> </g> </g> </g> </g> </g> </g> </g> </g> </g> </g> </g> </g> </g> </g> <g> <g> <g> <path class="st17" d="M185.4,128.3c-3.8,0-6.7,1.7-6.7,3.9c0,2.2,3,3.9,6.7,3.9c3.8,0,6.7-1.7,6.7-3.9 C192.1,130,189.2,128.3,185.4,128.3z"></path> </g> </g> </g> </g> <g> <g> <g> <g> <g> <g> <g> <g> <g> <g> <g> <g> <g> <g> <g> <g> <g> <g> <path class="st26" d="M170.4,167.5c-0.3-1-0.5-2.2-0.7-3.3c0.4-1.6,0.8-3,0.8-3.1l19-19.2 c0.6-0.9,1.6-1.4,2.7-1.6c0.2,0,0.4,0,0.6,0c0.9,0,1.7,0.3,2.4,0.8c1.8,1.3,2.1,3.9,0.8,5.7L178,169 c0,0,0,0,0,0.1C175.8,171.7,171.4,170.8,170.4,167.5z"></path> </g> </g> </g> </g> </g> </g> </g> </g> </g> </g> </g> </g> </g> </g> </g> </g> </g> <g> <g> <g> <g> <g> <g> <g> <g> <g> <g> <g> <g> <g> <g> <g> <g> <g> <path class="st26" d="M196.7,145.2c-1.1,3.5-4.2,5.6-6.9,4.7c-2.8-0.9-4.1-4.4-3-7.8c1.1-3.5,4.2-5.6,6.9-4.7 S197.7,141.7,196.7,145.2z"></path> </g> </g> </g> </g> </g> </g> </g> </g> </g> </g> </g> </g> </g> </g> </g> </g> </g> <g> <g> <g> <g> <g> <g> <g> <g> <g> <g> <g> <g> <g> <g> <g> <g> <g> <path class="st14" d="M172.8,171.4C172.8,171.4,172.8,171.4,172.8,171.4c-3.4,0.8-6.6-1.6-7-5l-4-29.6 c-0.4-3.3,1.9-6.4,5.2-6.8c3.3-0.5,6.4,1.9,6.8,5.2l1.6,11.7l1.5,11.5l0,0 C177.6,163.9,179.5,169.7,172.8,171.4z"></path> </g> </g> </g> </g> </g> </g> </g> </g> </g> </g> </g> </g> </g> </g> </g> </g> </g> </g> </g> <g> <g> <path class="st17" d="M254.5,152.3l19.9-26.9c3.1-2.6,3.5-7.3,0.9-10.5c-1.3-1.6-3.2-2.4-5.1-2.6c-2.5-0.2-5,1.1-6.4,3.2 c0,0-13.1,18.5-22.2,30.5c-1.7,2.2-8.2,9.7-2.8,13.3C246.4,164.3,252.4,155.1,254.5,152.3z"></path> </g> <g> <g> <g> <g> <g> <g> <g> <g> <path class="st27" d="M220.1,118.4l7.8,2.6c1.4,0.5,2.9-0.3,3.4-1.7l1.6-4.9c0.5-1.4-0.3-2.9-1.7-3.4l-12.6-4.2 c-1.4-0.5-2.9,0.3-3.4,1.7l0,0C213.8,112.5,216,117,220.1,118.4z"></path> </g> </g> </g> </g> </g> </g> </g> <g> <g> <g> <g> <g> <g> <g> <path class="st27" d="M230,106.6c2.6-0.1,3.4,1,4.3,3.6l10.4,33.6c0,0-10.5,9.6-11,6.2l-9.7-31.4L230,106.6z"></path> </g> </g> </g> </g> </g> </g> </g> <g> <path class="st17" d="M225.7,123.6l1.2,4.5c0,0,4.2,17.9,5.5,22.8c0.5,2,5.1,13.9,13.1,9.5c7-3.8,2.7-11.2,1.3-15.4 c-1.6-4.9-7-20.9-7-20.9l-1.9-5C231.7,117.6,228.8,118.9,225.7,123.6z"></path> </g> <g> <g> <g> <g> <g> <g> <g> <path class="st8" d="M225.7,123.6l1.2,4.5c6.5-4.6,10.6-4.7,12.9-4l-1.9-5C231.7,117.6,228.8,118.9,225.7,123.6z"></path> </g> </g> </g> </g> </g> </g> </g> </g> <g id="XMLID_344_"> <g> <g> <g> <g> <g> <g> <g> <path class="st11" d="M282.4,282.8c1.4,0,2.7,1.1,3.3,2.4c0.6,1.3,0.6,2.8,0.6,4.3c0,1.3-0.1,2.7-1,3.6 c-0.6,0.6-1.4,0.8-2.2,1c-1.5,0.4-3,0.8-4.5,0.9c-1.7,0.1-3.5-0.1-5.2,0.2c-1.1,0.2-2.2,0.5-3.2,0.8 c-3.1,0.7-6.3,0.6-9.3-0.2c-0.7-0.2-1.4-0.5-1.8-1c-0.7-0.9-0.5-2.3,0.3-3.2c0.7-0.9,1.8-1.4,2.9-1.9 c3.2-1.5,6.3-2.9,9.5-4.4c3.1-1.4,6.3-2.9,9.7-3c1.1,0,2.5,0.5,2.4,1.6L282.4,282.8z"></path> </g> </g> </g> </g> </g> </g> </g> <g> <g> <g> <g> <g> <g> <g> <path class="st28" d="M279.9,288.1l0.3,0c2.1-0.2,3.7-2,3.5-4.1l-0.5-6.4c-0.2-2.1-2-3.7-4.1-3.5l-0.3,0 c-2.1,0.2-3.7,2-3.5,4.1l0.5,6.4C276,286.7,277.8,288.3,279.9,288.1z"></path> </g> </g> </g> </g> </g> </g> </g> <g> <g> <g> <g> <g> <g> <g> <path class="st11" d="M295.1,300.8c-0.6,1.2-1.1,2.4-1.7,3.7c-0.5,1.2-1.1,2.5-1.5,3.8c-0.6,2-1.7,5.8-0.3,7.6 c2.1,2.7,5.5,0.4,7.2-1.5c2.5-2.8,4.9-5.9,7.1-9.2c0.9-1.4,1.8-2.9,2.1-4.7c0.9-5.4-1.7-13.1-7.2-11.3 c-2,0.7-2.8,2.4-3.3,4.6C297,296.3,296.1,298.6,295.1,300.8z"></path> </g> </g> </g> </g> </g> </g> </g> <g> <g> <g> <g> <g> <g> <g> <path class="st28" d="M301.4,297.8h0.3c2.1,0,3.8-1.7,3.8-3.8v-6.4c0-2.1-1.7-3.8-3.8-3.8h-0.3c-2.1,0-3.8,1.7-3.8,3.8 v6.4C297.5,296.1,299.3,297.8,301.4,297.8z"></path> </g> </g> </g> </g> </g> </g> </g> <g> <path class="st17" d="M282.1,163.9l20,6.9l8,9.1l-2.4,57.6v50.3c0,2.6-2.1,4.8-4.8,4.8h-3.3c-2.5,0-4.6-1.9-4.8-4.4l-5-60.1 l-1.7-22.8l-4.2-1.7l-1.9,27.3l2.2,46.9c0.1,2.8-2.2,5.1-5,4.9l-2.3-0.2c-2.2-0.2-4-1.8-4.3-4l-7.2-49.6 c-0.2-1.5-0.3-3-0.3-4.5v-51.7L282.1,163.9z"></path> </g> <g> <g> <g> <g> <g> <g> <g> <g> <g> <g> <g> <g> <path class="st8" d="M263.9,124.6v55.8c0,1.3,0.7,2.5,1.7,3.1l12.2,7.5c5.8,3.6,12.5,5,19.2,4.4 c2.3-0.2,4.6-0.7,6.9-1.5l6.8-4.5l-3.7-61.1c-0.1-2.6-1.1-5-2.9-6.9c-0.6-0.7-1.4-1.3-2.3-1.9l-4.4-2.8l-1.2-0.8 c-3.3-2.3-9.8-4.7-15.6-5.4c-1.1-0.1-2.2-0.2-3.3-0.2c-2.3,0-4.4,0.4-5.9,1.2C266.8,114.2,263.9,119.2,263.9,124.6z "></path> </g> </g> </g> </g> </g> </g> </g> </g> </g> </g> </g> <g class="st29"> <g> <g> <g> <g> <g> <g> <g> <g> <g> <g> <path class="st30" d="M307,128.2c0-0.6-0.1-1.3-0.2-1.9c-2.5-2.1-4.9-4.1-7.1-1.6c-1.5,1.8-2.5,5.8-3.5,7.9 c0,0.1,0.1,0.2,0.1,0.3c1,3,2.5,8,1.7,11c-0.6,2.2-2.3,3.9-2.7,6.2c-0.9,4.7,4,16.4,3.6,21.2 c-0.3,2.7-2.2,4.9-3.5,7.3c-2.6,5.3-1.6,11.7,1.7,16.7c2.3-0.2,4.6-0.7,6.9-1.5l6.8-4.5L307,128.2z"></path> </g> </g> </g> </g> </g> </g> </g> </g> </g> </g> </g> <g> <path class="st17" d="M308.9,126.9c0-0.2,0-0.4,0-0.6h0.1c0,0-0.1-3.4-0.1-3.4c-0.1-2.8-1.2-5.5-3.1-7.5 c-2.5-2.7-7.4-3.8-10.8-5.3c-11.2-4.9-33.9-1.7-33.9,13.2v2.9v64.9c0,1.6,0.8,3.1,2.2,3.9l4,2.4c0.8,0.5,1.8,0.5,2.6,0.1 c1.1-0.6,1.7-1.8,1.7-3c-0.1-9.9-0.3-19.8-0.4-29.7c-0.2-15.3-2.5-30.1-0.2-45.3c0.2-1.6,0.5-3.1,1.2-4.5 c2.5-4.8,10.3-5,14.9-3.9c1.7,0.4,2.9,1.1,3.8,2.1l-3.6-1c1.6,0.5,3.1,1.3,4.4,2.3c1.6,3.2,0.9,7.9,0.1,11.7 c-4.7,23.4-5,47.8-0.7,71.3c0.2,0.8,0.5,1.8,0.9,2.6c0.1,1,0.4,2,0.9,2.9c1,1.8,2.2,3.1,3.8,3.7c1.1,0,2.3,0,3.4-0.1 c1.8-0.3,3.6-0.7,4.9-1.2l5.7-3.7c1-0.7,1.6-1.8,1.6-3.1C311.9,187.2,308.9,126.9,308.9,126.9z"></path> </g> </g> <g> <g> <g> <g> <g> <g> <g> <path class="st17" d="M281.5,124.3l-2.2-0.7l-3.9,46.9c-0.2,0.9-0.1,1.9,0.3,2.8l2.9,9.1c0.3,0.8,1.3,0.9,1.9,0.2l3.9-8 L281.5,124.3z"></path> </g> </g> </g> </g> </g> </g> </g> <g> <g> <g> <g> <g> <g> <g> <g> <g> <path class="st17" d="M278.7,119.1l0.5,4.5c0.5,1.3,2.1,1.4,3.2,0.1l3.5-3.8l-3.8-1.7L278.7,119.1z"></path> </g> </g> </g> </g> </g> </g> </g> <g> <g> <g> <g> <g> <g> <g> <path class="st18" d="M292.4,120.5c0.7-0.9,1.2-1.9,1.5-2.9c0.2-0.6,0.3-1.1,0.4-1.7c2.1-11.5-19-12.1-19,0.9v2 c0,0.8,0.6,1.4,1.3,1.3l5.5-1.2l4.6,5.4c0.7,1.1,2,1.2,2.8,0.2C290.3,123.3,291.3,121.9,292.4,120.5z"></path> </g> </g> </g> </g> </g> </g> </g> <g> <g> <g> <g> <g> <g> <g> <path class="st13" d="M286.7,96.8C286.8,96.8,286.8,96.8,286.7,96.8c0.1,0,0.1-0.2,0.1-0.2 C286.8,96.7,286.8,96.8,286.7,96.8z"></path> </g> </g> </g> </g> </g> </g> </g> </g> </g> <g> <g> <g> <g> <g> <g> <g> <g> <g> <g> <g> <g> <path class="st27" d="M291.1,111.4L291.1,111.4L291.1,111.4V98.1c0-1.6-0.6-3.1-1.7-4.3c-0.6-0.6-1.3-1.2-2.2-1.5 c-0.7-0.2-1.4-0.4-2.1-0.4c-0.3,0-0.7,0-1,0.1c-1.4,0.2-2.6,0.8-3.6,1.8c-1.1,1.1-1.8,2.7-1.8,4.4v13.3l0,0l0,0v0.7 h0.1c0.4,2.2,3,3.8,6.2,3.8c3.2,0,5.7-1.6,6.2-3.8h0.1V111.4z"></path> </g> </g> </g> </g> </g> </g> </g> </g> </g> </g> </g> <g> <g> <g> <g> <g> <g> <g> <g> <g> <g> <g> <path class="st27" d="M279.4,113.7c5.2-0.3,9.3-3.6,9.3-7.6V94.3v-0.9c-1.1-0.4-2.4-0.5-3.7-0.5h-0.1h-0.3 c-0.2,0-0.5,0-0.7,0c-0.1,0-0.1,0-0.2,0c-0.6,0.1-1.2,0.3-1.7,0.6c-0.2,0.1-0.5,0.2-0.7,0.4 c-0.1,0.1-0.2,0.1-0.3,0.2c-0.2,0.2-0.5,0.4-0.7,0.7c-1,1.2-1.7,2.8-1.7,4.7v11.5L279.4,113.7z"></path> </g> </g> </g> </g> </g> </g> </g> </g> </g> </g> </g> </g> </g> <g> <g> <g> <g> <g> <g> <g> <g> <path class="st8" d="M263.5,85.5c1.1,0.9,7.6,3.9,7.6,3.9l1.5-7.9c0,0-2.5-2-3.5-2.3c-0.9-0.3-4,2.1-4,2.1L263.5,85.5z"></path> </g> </g> </g> </g> </g> </g> </g> <g> <g> <g> <g> <g> <g> <g> <path class="st27" d="M288.7,104.7c1.3-2,1.9-5.1,2.3-7.2c0.3-2.2,3.3-1.3,3.3-3.5c0-1.6-1.5-3.2-2.1-4.6 c-0.8-1.6-1.8-2.9-3.3-4c-1.8-1.3-4-2-6.1-2.6c-2.4-0.7-4.8-1.1-7.3-1.4l-0.7-2.3h-7.6V101c0,0.2,0.1,0.5,0.1,0.9 c1.3,5.4,7.3,8.3,12.5,6.3L288.7,104.7z"></path> </g> </g> </g> </g> </g> </g> </g> <g> <g> <g> <g> <g> <g> <g> <path class="st8" d="M264.7,77.9c2.2-1.5,5.1-2.6,7.5-3.7c2.8-1.4,5.8-2.3,8.9-2.5c4.1-0.2,8.5,1.1,11.3,4.2 c4,4.4,4.7,10.7,4.2,16.4c-0.2,2.2-0.5,4.6-1.7,6.5c-0.6,1-3.9,4.1-5.3,2.9c-1.2-1,0.3-2.9-0.3-4.5 c-0.1-0.2-0.1-0.4-0.3-0.6c-0.3-0.3-0.7-0.2-1.1-0.1c-0.3,0.1-0.6,0.1-0.9,0c-0.6-0.2-0.7-1.1-0.7-1.8 c0.1-2.2,0.4-4.7-2.1-5.4c-1.7-0.5-3.7,0.2-5.4-0.6c-3.4-1.5-6.4-4-10.1-4.8c-0.5-0.1-1.4-0.4-1.5,0.1 c-0.4,1.6-0.1,2.1-0.6,3.2c-1.5-0.2-3.2-1.4-3.8-2.7c-0.7-1.5-0.7-3.4,0.1-4.8C263.4,78.9,264,78.4,264.7,77.9z"></path> </g> </g> </g> </g> </g> </g> </g> <g> <g> <g> <g> <g> <g> <g> <path class="st8" d="M282,112.5c1.4-0.5,2.7-1.4,3.9-2.5c1.9-2.1,3.3-4.8,4-7.7c0.2-0.8,0.3-1.5,0.3-2.3 c0-0.4,0-0.8-0.4-1.1c-0.4-0.3-1-0.1-1.3,0.3c-0.3,0.4-0.4,0.9-0.5,1.4c-0.5,1.8-1.6,3.3-2.8,4.6 c-2.6,0.9-5.8-0.3-7.9-1.9c-1.6-1.2-3-2.6-4.9-3.2c-6-1.7-7.9,2.7-6.1,7c0.3,0.7,0.8,1.3,1.3,1.8 C271.2,112.6,277,114.1,282,112.5z"></path> </g> </g> </g> </g> </g> </g> </g> <g> <g> <g> <g> <g> <g> <g> <rect x="280.4" y="94.2" transform="matrix(0.8504 -0.5261 0.5261 0.8504 -7.0204 164.49)" class="st11" width="10.7" height="0.7"></rect> </g> </g> </g> </g> </g> </g> </g> <g> <g> <g> <g> <g> <g> <g> <path class="st27" d="M292.1,92.8c-1.1-0.3-2.3,0.6-2.8,1.7c-0.2,0.5-0.4,1.1-0.8,1.6c-0.2,0.3-0.5,0.5-0.8,0.5 c-0.3,0.8,0.3,1.9,1.2,2.1c1,0.2,2-0.2,2.8-0.8c0.9-0.6,1.6-1.5,1.8-2.6S293.1,93,292.1,92.8z"></path> </g> </g> </g> </g> </g> </g> </g> <g> <g> <g> <g> <g> <g> <g> <g> <g> <path class="st11" d="M272,93c0.2-0.7,0.7-1,1.2-0.7c0.5,0.3,1,1.1,1.2,2.1l0.3-0.1c-0.3-1.2-0.9-2.3-1.6-2.6 c-0.7-0.4-1.3-0.1-1.6,0.9L272,93z"></path> </g> </g> </g> </g> </g> </g> </g> </g> <g> <g> <g> <g> <g> <g> <g> <g> <path class="st11" d="M279.4,101.9c-0.5,0-1.1-0.2-1.7-0.5c-2-1.2-3.7-4-3.7-6.4c0-1.2,0.4-2.1,1.2-2.6 c0.8-0.4,1.8-0.4,2.8,0.2c2,1.2,3.7,4,3.7,6.4c0,1.2-0.4,2.1-1.2,2.6C280.2,101.8,279.8,101.9,279.4,101.9z M276.3,92.9c-0.3,0-0.5,0.1-0.7,0.2c-0.5,0.3-0.9,1-0.9,2c0,2.1,1.5,4.7,3.3,5.8c0.8,0.5,1.6,0.6,2.1,0.2 c0.5-0.3,0.9-1,0.9-2c0-2.1-1.5-4.7-3.3-5.8C277.2,93,276.7,92.9,276.3,92.9z"></path> </g> </g> </g> </g> </g> </g> </g> </g> <g> <g> <g> <g> <g> <g> <g> <g> <path class="st11" d="M270.1,96.5c-0.5,0-1.1-0.2-1.7-0.5c-2-1.2-3.7-4-3.7-6.4c0-1.2,0.4-2.1,1.2-2.6 c0.8-0.4,1.8-0.4,2.8,0.2c2,1.2,3.7,4,3.7,6.4c0,1.2-0.4,2.1-1.2,2.6C270.9,96.4,270.5,96.5,270.1,96.5z M267,87.5 c-0.3,0-0.5,0.1-0.7,0.2c-0.5,0.3-0.9,1-0.9,2c0,2.1,1.5,4.7,3.3,5.8c0.8,0.5,1.6,0.6,2.1,0.2c0.5-0.3,0.9-1,0.9-2 c0-2.1-1.5-4.7-3.3-5.8C267.9,87.6,267.4,87.5,267,87.5z"></path> </g> </g> </g> </g> </g> </g> </g> </g> </g> </g> <g> <g id="XMLID_345_"> <g> <g> <g> <g> <g> <g> <g> <g> <g> <g> <path class="st11" d="M334.2,213.5c1.3,1.3,2.1,3.1,2.1,4.9V234c0,0.9,0.4,1.7-0.3,2.2l-1.5,0.9v8.2 c0,0.8-0.4,1.6-1.2,2c0,0-34.9,20.1-35,20.2c-3,1.7-9.2-1.3-9.2-5v-27.3c0-0.4,0.1-0.8,0.3-1.2 c0.2-0.5,0.6-0.9,1.1-1.2l38.1-22c1.1-0.6,2.4-0.4,3.3,0.4L334.2,213.5z"></path> </g> </g> </g> </g> </g> </g> <g> <g> <g> <g> <g> <g> <path class="st21" d="M336.3,218.1v3.9l-37.6,16.7c-1.6,0.7-3.5,0.4-4.8-0.7l-4.5-3.9c0.2-0.5,0.6-0.9,1.1-1.2 l38.1-22c1.1-0.6,2.4-0.4,3.3,0.4l2.6,2.5C335.6,214.9,336.3,216.5,336.3,218.1z"></path> </g> </g> </g> </g> </g> </g> <g> <g> <g> <g> <g> <g> <path class="st31" d="M335,236.8L335,236.8c0.8-0.4,1.2-1.3,1.2-2.2l0-17.4c0-0.7-0.8-1.1-1.4-0.8l-35.3,20.9 c-2.3,1.3-3.7,3.8-3.7,6.4l0,20.7c0,2.2,2.4,3.6,4.3,2.5l32.4-19.3c1-0.6,1.8-1.9,1.8-3l0-6.9 C334.4,237.4,334.6,237,335,236.8z"></path> </g> </g> </g> </g> </g> </g> <g> <g> <g> <g> <g> <g> <path class="st17" d="M320,246.4l-6.3,3.7c-0.5,0.3-0.9,0.1-0.9-0.5l0-4.2c0-0.6,0.4-1.3,0.9-1.6l6.3-3.7 c0.5-0.3,0.9-0.1,0.9,0.5l0,4.2C321,245.3,320.6,246.1,320,246.4z"></path> </g> </g> </g> </g> </g> </g> <g> <g> <g> <g> <g> <g> <path class="st31" d="M320.8,216.3c0-2.3-0.1-3.7-1.7-3.9c-1-1-3.6-1.1-5.4-0.1l-4.7,2.7c-3.1,1.8-5.6,6.1-5.6,9.6 v5.2l1.6,0.8l2.2-1.3l0-5.2c0-2.2,1.5-4.8,3.4-5.9l4.7-2.7c0.5-0.3,1-0.4,1.4-0.4c0.3,0.4,0.4,0.9,0.4,1.6l0,5.2 l1.6,0.8l2.2-1.3V216.3z"></path> </g> </g> </g> </g> </g> </g> </g> </g> </g> </g> </g> <g> <g> <g> <g> <g> <g> <g> <g> <path class="st32" d="M318.9,211.1c-0.1-0.9-0.1-2-0.2-3.3C318.8,209.1,318.9,210.2,318.9,211.1z"></path> </g> </g> </g> </g> </g> </g> </g> <g> <g> <g> <g> <g> <g> <g> <path class="st17" d="M305.7,205.8C305.7,205.8,305.6,205.8,305.7,205.8c-0.1,0.4,0,0.8,0,1.2l0,0c-0.1-1-0.1-2-0.2-3 c-0.8-13.9,0.1-39.3-0.2-42.8l-6.7-36.2c-0.8-3.5,1.3-7,4.8-7.8c3.5-0.8,7,1.3,7.8,4.8l6.9,36.7c0.1,0.3,0.1,0.7,0.2,1 c0.1,1.2,0.5,8.4,1,16.7c0.4,6-1.1,21-0.8,26.4c0.1,1.1,0.1,2.2,0.2,3.2c-0.3,0.5-0.9,1.1-1.6,1.5 c-2.6,1.5-6.9,1.5-9.6,0C306.6,207.1,306,206.5,305.7,205.8z"></path> </g> </g> </g> </g> </g> </g> </g> <g> <g> <g> <g> <g> <g> <g> <path class="st27" d="M305.2,206.2c0.3,0.6,1.4,0.8,2.3,1.3c2.6,1.5,6.9,1.5,9.6,0c0.7-0.4,1.3-0.9,1.6-1.5 c0,0.5,0.1,1.1,0.1,1.6c0,0,0,0.1,0,0.1c0.1,1.3,0.1,2.4,0.2,3.3c0,0.2,0,0.4,0,0.5c0,0.2,0,0.4,0,0.6 c0,0.1,0,0.2,0,0.3c0,0.1,0,0.1,0,0.2c0,0,0,0.1,0,0.1c0,0.1,0,0.1,0,0.1c0,0.1,0,0.1,0,0.1c0,0,0,0.1,0,0.1 c0,0,0,0,0,0c0,0.1,0,0.1,0,0.1c0.2,3.6-2.5,6.6-6.1,6.9c-0.1,0-0.3,0-0.4,0c-3.4,0-6.3-2.7-6.5-6.1 c-0.1-1.3-0.1-2.6-0.2-4c-0.1-1.4-0.2-2.8-0.3-4.3C305.6,205.8,305.1,206.2,305.2,206.2z"></path> </g> </g> </g> </g> </g> </g> </g> <g> <g> <g> <g> <g> <g> <g> <path class="st8" d="M304.8,198.7l0,0.4c0.1,1.9,0.1,3.6,0.2,5.1l0.1,2.1l0.5,0.9l0.3,0c0.3,0.3,0.7,0.6,1.2,0.9 c1.4,0.8,3.2,1.2,5,1.2c1.8,0,3.6-0.4,5-1.2c0.8-0.5,1.4-1,1.8-1.7l0.1-0.1l-0.2-3.4c0-0.5,0-1.8,0-3.2 c0-0.5-0.5-0.8-0.9-0.6c-0.5,0.3-1,0.5-1.2,0.6c-2.5,1.5-6.6,1.5-9.1,0c-0.5-0.3-2-0.7-2.3-1.1c-0.1,0-0.1,0-0.2,0 L304.8,198.7z"></path> </g> </g> </g> </g> </g> </g> </g> </g> </g> </g> </g> <g> <defs> <path id="SVGID_109_" d="M-444.7,169.6c-11.7,4-21.7,11.4-31.2,18.9c-9.6,7.4-19.3,15.1-30.8,19.6c-9.1,3.6-19,5.1-28.5,7.8 c-9.5,2.7-19.1,6.9-24.9,14.3c-7.4,9.5-7.1,22.8-1,32.8c6,10,16.9,16.9,28.6,20.9c11.7,4,24.4,5.3,36.9,6.3 c17.1,1.4,34.6,2.3,51.6-0.8c17-3.2,33.7-10.8,44-23.7c10.2-12.6,13.2-29,12.1-44.4c-1-13.4-3.1-27.4-11.3-38.3 c-7.2-9.6-18.5-14.9-23-15.6C-429.6,166.2-437.5,167.2-444.7,169.6"></path> </defs> <clipPath id="SVGID_2_"> <use xlink:href="#SVGID_109_" style="overflow:visible;"></use> </clipPath> <g style="clip-path:url(#SVGID_2_);"> <defs> <rect id="SVGID_111_" x="-1812.6" y="-3112.8" width="1440" height="5254"></rect> </defs> <clipPath id="SVGID_3_"> <use xlink:href="#SVGID_111_" style="overflow:visible;"></use> </clipPath> <g style="opacity:0;clip-path:url(#SVGID_3_);"> <g class="st192"> <g> <defs> <rect id="SVGID_113_" x="-3804.7" y="-1651.1" transform="matrix(0.1736 -0.9848 0.9848 0.1736 -424.4561 -1477.4924)" width="5424.2" height="2330.5"></rect> </defs> <clipPath id="SVGID_4_"> <use xlink:href="#SVGID_113_" style="overflow:visible;"></use> </clipPath> <g style="clip-path:url(#SVGID_4_);"> <image style="overflow:visible;" width="13489" height="23945" xlink:href="8F87C13FD28C937D.jpg" transform="matrix(0.24 0 0 0.24 -2711.2751 -3359.2808)"> </image> </g> </g> </g> </g> <g style="opacity:8.770000e-02;clip-path:url(#SVGID_3_);"> <g class="st194"> <g> <defs> <rect id="SVGID_115_" x="-3804.7" y="-1651.1" transform="matrix(0.1736 -0.9848 0.9848 0.1736 -424.4561 -1477.4924)" width="5424.2" height="2330.5"></rect> </defs> <clipPath id="SVGID_5_"> <use xlink:href="#SVGID_115_" style="overflow:visible;"></use> </clipPath> <g style="clip-path:url(#SVGID_5_);"> <image style="overflow:visible;" width="13489" height="23945" xlink:href="8F87C13FD28C937F.jpg" transform="matrix(0.24 0 0 0.24 -2711.2751 -3359.2808)"> </image> </g> </g> </g> </g> </g> </g> </g> <g id="blue-box2"> </g> <g id="woman1-left-upperleg"> </g> <g id="woman1-left-lowerleg"> </g> <g id="woman1-left-foot"> </g> <g id="woman1-right-lowerleg"> </g> <g id="woman1-right-upperlegv"> </g> <g id="woman1-right-foot"> </g> <g id="woman1-back-upperarm"> </g> <g id="woman1-back-forearm"> </g> <g id="woman1"> </g> <g id="woman1-front-forearm"> </g> <g id="woman1-front-upperarm"> </g> <g id="woman1-head"> </g> <g id="man-"> </g> <g id="man-hand"> </g> <g id="man-forearm"> </g> <g id="man-upperarm"> </g> <g id="Isolation_Mode"> </g> <g id="Layer_56"> </g> <g id="Layer_57"> </g> </svg> 